<svg  height="100%" version="1.2" width="100%" viewbox="0 0 2048  2048" xmlns="http://www.w3.org/2000/svg"><defs />
<g id="layer1"><path d="M 248,1677 L 248,1694 L 1804,1694 L 1804,1677 Z" fill="orange" /></g>
<g id="layer2"><path d="M 1477,1555 L 1476,1556 L 1477,1557 L 1476,1558 L 1476,1560 L 1477,1561 L 1478,1560 L 1479,1561 L 1481,1561 L 1483,1563 L 1483,1564 L 1484,1565 L 1484,1617 L 1485,1618 L 1485,1624 L 1486,1625 L 1486,1627 L 1487,1628 L 1487,1629 L 1488,1630 L 1488,1631 L 1494,1637 L 1495,1637 L 1497,1639 L 1498,1639 L 1499,1640 L 1500,1640 L 1501,1641 L 1503,1641 L 1504,1642 L 1508,1642 L 1509,1643 L 1527,1643 L 1528,1642 L 1532,1642 L 1533,1641 L 1535,1641 L 1536,1640 L 1538,1640 L 1540,1638 L 1541,1638 L 1547,1632 L 1547,1631 L 1548,1630 L 1548,1629 L 1549,1628 L 1549,1627 L 1550,1626 L 1550,1624 L 1551,1623 L 1551,1621 L 1552,1620 L 1552,1616 L 1553,1615 L 1553,1567 L 1554,1566 L 1554,1564 L 1556,1562 L 1557,1562 L 1558,1561 L 1564,1561 L 1568,1565 L 1567,1566 L 1568,1567 L 1568,1568 L 1569,1569 L 1569,1630 L 1568,1631 L 1568,1634 L 1566,1636 L 1565,1636 L 1564,1637 L 1563,1637 L 1562,1638 L 1561,1638 L 1561,1643 L 1594,1643 L 1594,1638 L 1592,1638 L 1591,1637 L 1590,1637 L 1588,1635 L 1588,1634 L 1587,1633 L 1587,1629 L 1586,1628 L 1586,1605 L 1587,1604 L 1587,1603 L 1588,1602 L 1590,1602 L 1591,1601 L 1592,1601 L 1593,1600 L 1594,1600 L 1595,1599 L 1598,1599 L 1599,1600 L 1599,1601 L 1601,1603 L 1601,1604 L 1602,1605 L 1602,1606 L 1604,1608 L 1604,1609 L 1607,1612 L 1607,1613 L 1608,1614 L 1608,1615 L 1610,1617 L 1610,1618 L 1612,1620 L 1612,1621 L 1613,1622 L 1613,1623 L 1614,1624 L 1614,1625 L 1615,1626 L 1615,1628 L 1616,1629 L 1616,1633 L 1617,1634 L 1617,1635 L 1614,1638 L 1613,1638 L 1613,1640 L 1612,1641 L 1612,1642 L 1613,1643 L 1663,1643 L 1664,1644 L 1667,1644 L 1667,1638 L 1666,1638 L 1665,1637 L 1664,1637 L 1661,1634 L 1661,1633 L 1660,1632 L 1660,1579 L 1659,1578 L 1659,1575 L 1660,1574 L 1661,1574 L 1662,1575 L 1663,1575 L 1667,1579 L 1668,1579 L 1673,1584 L 1674,1584 L 1681,1591 L 1682,1591 L 1687,1596 L 1688,1596 L 1693,1601 L 1694,1601 L 1700,1607 L 1700,1609 L 1701,1610 L 1701,1632 L 1695,1638 L 1694,1638 L 1693,1639 L 1693,1643 L 1721,1643 L 1721,1641 L 1722,1640 L 1721,1639 L 1721,1638 L 1719,1638 L 1718,1637 L 1717,1637 L 1714,1634 L 1714,1631 L 1713,1630 L 1713,1568 L 1714,1567 L 1714,1565 L 1718,1561 L 1720,1561 L 1721,1560 L 1721,1556 L 1720,1555 L 1694,1555 L 1693,1556 L 1693,1560 L 1694,1561 L 1697,1561 L 1700,1564 L 1700,1565 L 1701,1566 L 1701,1582 L 1700,1583 L 1699,1583 L 1691,1575 L 1690,1575 L 1685,1570 L 1684,1570 L 1681,1567 L 1681,1566 L 1680,1566 L 1677,1563 L 1676,1563 L 1675,1562 L 1675,1561 L 1676,1560 L 1676,1555 L 1640,1555 L 1640,1560 L 1641,1561 L 1643,1561 L 1646,1564 L 1646,1565 L 1647,1566 L 1647,1569 L 1648,1570 L 1648,1583 L 1647,1584 L 1648,1585 L 1648,1598 L 1647,1599 L 1647,1600 L 1648,1601 L 1648,1612 L 1647,1613 L 1647,1617 L 1648,1618 L 1648,1630 L 1647,1631 L 1647,1633 L 1646,1634 L 1646,1635 L 1644,1637 L 1643,1637 L 1642,1638 L 1641,1638 L 1640,1637 L 1639,1637 L 1637,1635 L 1637,1634 L 1635,1632 L 1635,1631 L 1634,1630 L 1634,1628 L 1633,1627 L 1633,1626 L 1632,1625 L 1632,1624 L 1631,1623 L 1631,1621 L 1630,1620 L 1630,1619 L 1629,1618 L 1629,1617 L 1628,1616 L 1628,1615 L 1627,1614 L 1627,1612 L 1626,1611 L 1626,1610 L 1625,1609 L 1625,1608 L 1624,1607 L 1624,1606 L 1622,1604 L 1622,1603 L 1620,1601 L 1620,1600 L 1618,1598 L 1618,1597 L 1616,1595 L 1616,1594 L 1614,1592 L 1616,1590 L 1617,1590 L 1620,1587 L 1621,1587 L 1625,1583 L 1625,1582 L 1627,1580 L 1627,1579 L 1628,1578 L 1628,1576 L 1629,1575 L 1629,1574 L 1630,1573 L 1630,1566 L 1629,1565 L 1629,1563 L 1627,1561 L 1627,1560 L 1625,1558 L 1624,1558 L 1623,1557 L 1622,1557 L 1621,1556 L 1617,1556 L 1616,1555 L 1533,1555 L 1532,1556 L 1532,1558 L 1533,1559 L 1533,1560 L 1534,1561 L 1537,1561 L 1539,1563 L 1539,1564 L 1540,1565 L 1540,1569 L 1541,1570 L 1541,1572 L 1540,1573 L 1540,1591 L 1541,1592 L 1541,1595 L 1540,1596 L 1540,1620 L 1539,1621 L 1539,1622 L 1538,1623 L 1538,1624 L 1533,1629 L 1532,1629 L 1531,1630 L 1530,1630 L 1529,1631 L 1528,1631 L 1527,1632 L 1514,1632 L 1513,1631 L 1511,1631 L 1509,1629 L 1508,1629 L 1507,1628 L 1507,1627 L 1504,1624 L 1504,1623 L 1503,1622 L 1503,1618 L 1502,1617 L 1502,1566 L 1503,1565 L 1503,1564 L 1506,1561 L 1509,1561 L 1510,1560 L 1510,1556 L 1509,1555 Z" fill="orange" /></g><g id="layer3"><path d="M 1299,1555 L 1298,1556 L 1298,1560 L 1299,1561 L 1301,1561 L 1302,1562 L 1303,1562 L 1306,1565 L 1306,1633 L 1301,1638 L 1298,1638 L 1298,1642 L 1299,1643 L 1349,1643 L 1350,1642 L 1355,1642 L 1356,1641 L 1358,1641 L 1359,1640 L 1361,1640 L 1363,1638 L 1364,1638 L 1365,1637 L 1366,1637 L 1371,1632 L 1371,1631 L 1372,1630 L 1372,1629 L 1373,1628 L 1373,1627 L 1374,1626 L 1374,1625 L 1375,1624 L 1375,1619 L 1376,1618 L 1376,1617 L 1375,1616 L 1376,1615 L 1376,1614 L 1375,1613 L 1375,1607 L 1373,1605 L 1373,1603 L 1372,1602 L 1372,1601 L 1369,1598 L 1369,1597 L 1366,1594 L 1365,1594 L 1361,1590 L 1359,1590 L 1358,1589 L 1357,1589 L 1356,1588 L 1355,1588 L 1354,1587 L 1354,1586 L 1356,1584 L 1357,1584 L 1359,1582 L 1360,1582 L 1365,1577 L 1365,1575 L 1366,1574 L 1366,1573 L 1367,1572 L 1367,1563 L 1365,1561 L 1365,1560 L 1364,1560 L 1362,1558 L 1361,1558 L 1360,1557 L 1359,1557 L 1358,1556 L 1355,1556 L 1354,1555 Z" fill="orange" /></g><g id="layer4"><path d="M 1230,1555 L 1229,1556 L 1229,1560 L 1230,1561 L 1232,1561 L 1236,1565 L 1236,1566 L 1237,1567 L 1237,1632 L 1236,1633 L 1236,1634 L 1233,1637 L 1232,1637 L 1231,1638 L 1229,1638 L 1229,1643 L 1239,1643 L 1240,1644 L 1243,1644 L 1244,1643 L 1279,1643 L 1280,1644 L 1281,1643 L 1284,1643 L 1285,1644 L 1285,1645 L 1286,1645 L 1287,1646 L 1289,1646 L 1289,1642 L 1290,1641 L 1290,1639 L 1291,1638 L 1291,1636 L 1292,1635 L 1292,1634 L 1293,1633 L 1293,1631 L 1294,1630 L 1294,1627 L 1295,1626 L 1295,1624 L 1296,1623 L 1296,1622 L 1297,1621 L 1297,1619 L 1298,1618 L 1298,1616 L 1299,1615 L 1299,1613 L 1300,1612 L 1300,1609 L 1299,1608 L 1295,1608 L 1295,1609 L 1294,1610 L 1294,1611 L 1293,1612 L 1293,1613 L 1292,1614 L 1292,1615 L 1289,1618 L 1289,1619 L 1280,1628 L 1279,1628 L 1278,1629 L 1277,1629 L 1276,1630 L 1275,1630 L 1274,1631 L 1273,1631 L 1272,1632 L 1269,1632 L 1268,1633 L 1260,1633 L 1259,1632 L 1257,1632 L 1256,1631 L 1256,1630 L 1255,1629 L 1255,1566 L 1256,1565 L 1256,1564 L 1259,1561 L 1261,1561 L 1262,1560 L 1263,1560 L 1263,1556 L 1262,1555 Z" fill="orange" /></g><g id="layer5"><path d="M 1057,1555 L 1056,1556 L 1056,1560 L 1057,1561 L 1059,1561 L 1063,1565 L 1063,1567 L 1064,1568 L 1064,1631 L 1063,1632 L 1063,1633 L 1062,1634 L 1062,1635 L 1061,1636 L 1060,1636 L 1058,1638 L 1056,1638 L 1056,1643 L 1084,1643 L 1084,1639 L 1083,1638 L 1082,1638 L 1081,1637 L 1080,1637 L 1077,1634 L 1077,1632 L 1076,1631 L 1076,1577 L 1077,1576 L 1078,1577 L 1078,1578 L 1079,1579 L 1079,1580 L 1080,1581 L 1080,1582 L 1082,1584 L 1082,1585 L 1083,1586 L 1083,1587 L 1084,1588 L 1084,1589 L 1085,1590 L 1085,1591 L 1086,1592 L 1086,1593 L 1087,1594 L 1087,1595 L 1088,1596 L 1088,1597 L 1090,1599 L 1090,1600 L 1091,1601 L 1091,1602 L 1092,1603 L 1092,1604 L 1094,1606 L 1094,1608 L 1097,1611 L 1097,1612 L 1098,1613 L 1098,1614 L 1099,1615 L 1099,1614 L 1100,1613 L 1100,1612 L 1102,1610 L 1102,1609 L 1103,1608 L 1103,1607 L 1104,1606 L 1104,1605 L 1107,1602 L 1107,1601 L 1108,1600 L 1108,1599 L 1109,1598 L 1109,1597 L 1111,1595 L 1111,1594 L 1112,1593 L 1112,1592 L 1114,1590 L 1114,1589 L 1115,1588 L 1115,1587 L 1117,1585 L 1117,1584 L 1118,1583 L 1118,1582 L 1120,1580 L 1120,1579 L 1122,1577 L 1123,1578 L 1123,1633 L 1122,1634 L 1122,1635 L 1121,1636 L 1120,1636 L 1118,1638 L 1116,1638 L 1116,1639 L 1115,1640 L 1116,1641 L 1116,1643 L 1149,1643 L 1149,1638 L 1147,1638 L 1146,1637 L 1145,1637 L 1143,1635 L 1143,1634 L 1142,1633 L 1142,1632 L 1141,1631 L 1141,1567 L 1142,1566 L 1142,1565 L 1146,1561 L 1148,1561 L 1149,1560 L 1149,1556 L 1148,1555 L 1116,1555 L 1115,1556 L 1115,1558 L 1116,1559 L 1116,1560 L 1118,1562 L 1118,1563 L 1116,1565 L 1116,1566 L 1115,1567 L 1115,1568 L 1113,1570 L 1113,1571 L 1112,1572 L 1112,1573 L 1110,1575 L 1110,1576 L 1109,1577 L 1109,1578 L 1107,1580 L 1107,1581 L 1106,1582 L 1106,1583 L 1105,1584 L 1105,1585 L 1103,1587 L 1102,1587 L 1101,1586 L 1101,1584 L 1099,1582 L 1099,1581 L 1098,1580 L 1098,1579 L 1096,1577 L 1096,1576 L 1095,1575 L 1095,1573 L 1093,1571 L 1093,1569 L 1091,1567 L 1091,1565 L 1089,1563 L 1089,1561 L 1091,1559 L 1091,1556 L 1090,1555 Z" fill="orange" /></g><g id="layer6"><path d="M 977,1555 L 977,1559 L 979,1561 L 980,1561 L 984,1565 L 984,1566 L 985,1567 L 985,1632 L 984,1633 L 984,1634 L 981,1637 L 979,1637 L 977,1639 L 977,1643 L 1010,1643 L 1011,1642 L 1011,1639 L 1010,1638 L 1009,1638 L 1008,1637 L 1007,1637 L 1004,1634 L 1004,1633 L 1003,1632 L 1003,1566 L 1005,1564 L 1005,1563 L 1006,1562 L 1007,1562 L 1008,1561 L 1009,1561 L 1011,1559 L 1011,1556 L 1010,1555 Z" fill="orange" /></g><g id="layer7"><path d="M 889,1555 L 889,1560 L 890,1561 L 892,1561 L 897,1566 L 897,1632 L 896,1633 L 896,1635 L 895,1636 L 894,1636 L 892,1638 L 889,1638 L 889,1643 L 922,1643 L 923,1642 L 923,1639 L 922,1638 L 919,1638 L 916,1635 L 916,1634 L 915,1633 L 915,1590 L 916,1589 L 946,1589 L 947,1590 L 947,1632 L 946,1633 L 946,1634 L 942,1638 L 940,1638 L 939,1639 L 939,1643 L 972,1643 L 972,1641 L 973,1640 L 973,1638 L 969,1638 L 966,1635 L 966,1634 L 965,1633 L 965,1625 L 964,1624 L 964,1623 L 965,1622 L 965,1616 L 964,1615 L 964,1607 L 965,1606 L 965,1595 L 964,1594 L 964,1592 L 965,1591 L 964,1590 L 964,1569 L 965,1568 L 965,1566 L 966,1565 L 966,1564 L 968,1562 L 969,1562 L 970,1561 L 971,1561 L 972,1560 L 973,1560 L 973,1556 L 972,1555 L 940,1555 L 939,1556 L 939,1560 L 940,1560 L 941,1561 L 943,1561 L 945,1563 L 945,1564 L 946,1565 L 946,1567 L 947,1568 L 947,1577 L 946,1578 L 945,1578 L 944,1579 L 916,1579 L 915,1578 L 915,1566 L 916,1565 L 916,1564 L 919,1561 L 921,1561 L 923,1559 L 923,1557 L 921,1555 Z" fill="orange" /></g><g id="layer8"><path d="M 545,1555 L 545,1560 L 546,1561 L 547,1561 L 549,1563 L 548,1564 L 548,1567 L 547,1568 L 547,1570 L 546,1571 L 546,1573 L 545,1574 L 545,1576 L 544,1577 L 544,1578 L 543,1579 L 543,1581 L 542,1582 L 542,1583 L 541,1584 L 541,1586 L 540,1587 L 540,1589 L 539,1590 L 539,1591 L 538,1592 L 538,1595 L 537,1596 L 537,1597 L 536,1598 L 536,1600 L 535,1601 L 535,1603 L 534,1604 L 534,1605 L 533,1606 L 533,1608 L 532,1609 L 532,1610 L 531,1611 L 531,1613 L 530,1614 L 530,1616 L 529,1617 L 529,1619 L 528,1620 L 528,1621 L 527,1622 L 527,1624 L 526,1625 L 526,1626 L 525,1627 L 525,1629 L 524,1630 L 524,1631 L 523,1632 L 523,1633 L 519,1637 L 518,1637 L 517,1638 L 515,1638 L 515,1643 L 544,1643 L 544,1642 L 545,1641 L 545,1639 L 544,1638 L 541,1638 L 538,1635 L 538,1634 L 537,1633 L 538,1632 L 538,1628 L 539,1627 L 539,1624 L 540,1623 L 540,1620 L 541,1619 L 541,1618 L 542,1617 L 542,1615 L 543,1614 L 543,1612 L 544,1611 L 544,1610 L 545,1609 L 545,1607 L 547,1605 L 549,1605 L 550,1606 L 553,1606 L 554,1607 L 557,1607 L 558,1608 L 559,1608 L 560,1609 L 561,1609 L 562,1610 L 563,1610 L 573,1620 L 573,1621 L 574,1622 L 574,1623 L 575,1624 L 575,1626 L 576,1627 L 576,1634 L 573,1637 L 572,1637 L 571,1638 L 571,1639 L 570,1640 L 570,1643 L 603,1643 L 603,1639 L 602,1638 L 600,1638 L 596,1634 L 596,1633 L 595,1632 L 595,1630 L 594,1629 L 594,1627 L 593,1626 L 593,1623 L 592,1622 L 592,1621 L 591,1620 L 591,1617 L 590,1616 L 590,1615 L 589,1614 L 589,1611 L 588,1610 L 588,1609 L 587,1608 L 587,1606 L 586,1605 L 586,1603 L 585,1602 L 585,1600 L 584,1599 L 584,1597 L 583,1596 L 583,1594 L 582,1593 L 582,1592 L 581,1591 L 581,1588 L 580,1587 L 580,1586 L 579,1585 L 579,1582 L 578,1581 L 578,1579 L 577,1578 L 577,1576 L 576,1575 L 576,1574 L 575,1573 L 575,1570 L 574,1569 L 574,1568 L 573,1567 L 573,1564 L 572,1563 L 574,1561 L 575,1561 L 576,1560 L 576,1555 Z" fill="orange" /></g><g id="layer9"><path d="M 409,1555 L 408,1556 L 408,1560 L 409,1560 L 410,1561 L 411,1561 L 412,1562 L 413,1562 L 414,1563 L 414,1564 L 415,1565 L 415,1567 L 416,1568 L 416,1572 L 417,1573 L 417,1576 L 418,1577 L 418,1581 L 419,1582 L 419,1584 L 420,1585 L 420,1589 L 421,1590 L 421,1593 L 422,1594 L 422,1598 L 423,1599 L 423,1604 L 424,1605 L 424,1609 L 425,1610 L 425,1613 L 426,1614 L 426,1617 L 427,1618 L 427,1621 L 428,1622 L 428,1626 L 429,1627 L 429,1631 L 430,1632 L 430,1636 L 428,1638 L 427,1638 L 426,1639 L 426,1641 L 427,1642 L 427,1643 L 456,1643 L 456,1638 L 455,1637 L 454,1637 L 453,1636 L 453,1631 L 454,1630 L 454,1626 L 455,1625 L 455,1622 L 456,1621 L 456,1617 L 457,1616 L 457,1613 L 458,1612 L 458,1608 L 459,1607 L 459,1603 L 460,1602 L 460,1598 L 461,1597 L 461,1594 L 462,1593 L 464,1595 L 464,1598 L 465,1599 L 465,1602 L 466,1603 L 466,1607 L 467,1608 L 467,1611 L 468,1612 L 468,1616 L 469,1617 L 469,1621 L 470,1622 L 470,1626 L 471,1627 L 471,1631 L 472,1632 L 472,1636 L 469,1639 L 469,1643 L 498,1643 L 498,1641 L 499,1640 L 498,1639 L 498,1638 L 497,1637 L 496,1637 L 495,1636 L 495,1632 L 496,1631 L 496,1628 L 497,1627 L 497,1623 L 498,1622 L 498,1618 L 499,1617 L 499,1614 L 500,1613 L 500,1609 L 501,1608 L 501,1603 L 502,1602 L 502,1599 L 503,1598 L 503,1593 L 504,1592 L 504,1589 L 505,1588 L 505,1584 L 506,1583 L 506,1579 L 507,1578 L 507,1574 L 508,1573 L 508,1570 L 509,1569 L 509,1567 L 510,1566 L 510,1565 L 514,1561 L 518,1561 L 518,1555 L 491,1555 L 490,1556 L 490,1561 L 494,1561 L 497,1564 L 497,1570 L 496,1571 L 496,1575 L 495,1576 L 495,1579 L 494,1580 L 494,1585 L 493,1586 L 493,1590 L 492,1591 L 492,1596 L 491,1597 L 491,1600 L 490,1601 L 490,1605 L 489,1606 L 489,1611 L 488,1612 L 488,1615 L 487,1616 L 486,1616 L 485,1615 L 485,1611 L 484,1610 L 484,1606 L 483,1605 L 483,1601 L 482,1600 L 482,1597 L 481,1596 L 481,1593 L 480,1592 L 480,1589 L 479,1588 L 479,1583 L 478,1582 L 478,1579 L 477,1578 L 477,1574 L 476,1573 L 476,1569 L 475,1568 L 475,1563 L 477,1561 L 480,1561 L 482,1559 L 482,1556 L 481,1555 L 450,1555 L 449,1556 L 449,1560 L 450,1561 L 453,1561 L 455,1563 L 455,1565 L 456,1566 L 455,1567 L 455,1572 L 454,1573 L 454,1577 L 453,1578 L 453,1582 L 452,1583 L 452,1587 L 451,1588 L 451,1590 L 450,1591 L 450,1596 L 449,1597 L 449,1599 L 448,1600 L 448,1605 L 447,1606 L 447,1609 L 446,1610 L 446,1615 L 445,1616 L 444,1616 L 443,1615 L 443,1612 L 442,1611 L 442,1609 L 441,1608 L 441,1603 L 440,1602 L 440,1599 L 439,1598 L 439,1594 L 438,1593 L 438,1590 L 437,1589 L 437,1584 L 436,1583 L 436,1581 L 435,1580 L 435,1576 L 434,1575 L 434,1571 L 433,1570 L 433,1564 L 436,1561 L 438,1561 L 439,1560 L 439,1556 L 438,1555 Z" fill="orange" /></g><g id="layer10"><path d="M 249,1555 L 248,1556 L 248,1560 L 249,1561 L 251,1561 L 252,1562 L 253,1562 L 255,1564 L 255,1565 L 256,1566 L 256,1633 L 251,1638 L 249,1638 L 248,1639 L 248,1643 L 276,1643 L 276,1640 L 277,1639 L 276,1638 L 274,1638 L 272,1636 L 271,1636 L 270,1635 L 270,1634 L 269,1633 L 269,1631 L 268,1630 L 268,1575 L 269,1574 L 270,1574 L 272,1576 L 273,1576 L 278,1581 L 279,1581 L 285,1587 L 286,1587 L 292,1593 L 293,1593 L 296,1596 L 297,1596 L 302,1601 L 303,1601 L 308,1606 L 308,1607 L 309,1608 L 309,1610 L 310,1611 L 310,1631 L 309,1632 L 309,1633 L 305,1637 L 304,1637 L 303,1638 L 302,1638 L 301,1639 L 301,1641 L 302,1642 L 302,1643 L 330,1643 L 330,1638 L 328,1638 L 327,1637 L 326,1637 L 323,1634 L 323,1632 L 322,1631 L 322,1567 L 323,1566 L 323,1565 L 324,1564 L 324,1563 L 325,1562 L 326,1562 L 327,1561 L 329,1561 L 330,1560 L 330,1555 L 302,1555 L 302,1557 L 301,1558 L 301,1560 L 302,1561 L 305,1561 L 309,1565 L 309,1567 L 310,1568 L 310,1582 L 309,1583 L 308,1583 L 302,1577 L 301,1577 L 295,1571 L 294,1571 L 287,1564 L 286,1564 L 284,1562 L 284,1561 L 285,1560 L 285,1556 L 284,1555 Z" fill="orange" /></g><g id="layer11"><path d="M 1418,1554 L 1417,1555 L 1414,1555 L 1413,1556 L 1409,1556 L 1407,1558 L 1406,1558 L 1405,1559 L 1404,1559 L 1403,1560 L 1402,1560 L 1400,1562 L 1399,1562 L 1390,1571 L 1390,1572 L 1388,1574 L 1388,1575 L 1386,1577 L 1386,1578 L 1385,1579 L 1385,1580 L 1384,1581 L 1384,1583 L 1383,1584 L 1383,1586 L 1382,1587 L 1382,1591 L 1381,1592 L 1381,1597 L 1380,1598 L 1380,1603 L 1381,1604 L 1381,1609 L 1382,1610 L 1382,1614 L 1383,1615 L 1383,1617 L 1384,1618 L 1384,1619 L 1385,1620 L 1385,1621 L 1386,1622 L 1386,1623 L 1387,1624 L 1387,1625 L 1390,1628 L 1390,1629 L 1396,1635 L 1397,1635 L 1400,1638 L 1401,1638 L 1403,1640 L 1405,1640 L 1406,1641 L 1407,1641 L 1408,1642 L 1411,1642 L 1412,1643 L 1415,1643 L 1416,1644 L 1433,1644 L 1434,1643 L 1438,1643 L 1439,1642 L 1441,1642 L 1442,1641 L 1444,1641 L 1445,1640 L 1446,1640 L 1447,1639 L 1448,1639 L 1449,1638 L 1450,1638 L 1452,1636 L 1453,1636 L 1455,1634 L 1456,1634 L 1456,1633 L 1457,1632 L 1458,1632 L 1461,1629 L 1461,1628 L 1464,1625 L 1464,1624 L 1466,1622 L 1466,1621 L 1467,1620 L 1467,1619 L 1468,1618 L 1468,1617 L 1469,1616 L 1469,1614 L 1470,1613 L 1470,1610 L 1471,1609 L 1471,1590 L 1470,1589 L 1470,1585 L 1469,1584 L 1469,1582 L 1468,1581 L 1468,1580 L 1467,1579 L 1467,1578 L 1466,1577 L 1466,1576 L 1465,1575 L 1465,1574 L 1463,1572 L 1463,1571 L 1454,1562 L 1453,1562 L 1451,1560 L 1450,1560 L 1449,1559 L 1448,1559 L 1447,1558 L 1445,1558 L 1444,1557 L 1443,1557 L 1442,1556 L 1439,1556 L 1438,1555 L 1434,1555 L 1433,1554 Z" fill="orange" /></g><g id="layer12"><path d="M 1787,1553 L 1786,1554 L 1785,1554 L 1784,1555 L 1726,1555 L 1725,1556 L 1725,1559 L 1727,1561 L 1729,1561 L 1732,1564 L 1732,1565 L 1733,1566 L 1733,1633 L 1732,1634 L 1732,1635 L 1729,1638 L 1726,1638 L 1725,1639 L 1725,1642 L 1726,1643 L 1782,1643 L 1783,1642 L 1785,1642 L 1786,1643 L 1787,1643 L 1790,1646 L 1791,1645 L 1791,1643 L 1792,1642 L 1792,1640 L 1793,1639 L 1793,1636 L 1794,1635 L 1794,1634 L 1795,1633 L 1795,1630 L 1796,1629 L 1796,1627 L 1797,1626 L 1797,1624 L 1798,1623 L 1798,1621 L 1799,1620 L 1799,1618 L 1800,1617 L 1800,1615 L 1801,1614 L 1801,1612 L 1802,1611 L 1802,1609 L 1801,1609 L 1800,1608 L 1797,1608 L 1797,1609 L 1796,1610 L 1796,1611 L 1795,1612 L 1795,1613 L 1793,1615 L 1793,1616 L 1792,1617 L 1792,1618 L 1782,1628 L 1781,1628 L 1780,1629 L 1779,1629 L 1778,1630 L 1777,1630 L 1776,1631 L 1774,1631 L 1773,1632 L 1770,1632 L 1769,1633 L 1757,1633 L 1756,1632 L 1754,1632 L 1751,1629 L 1751,1590 L 1752,1589 L 1762,1589 L 1763,1590 L 1765,1590 L 1766,1591 L 1767,1591 L 1768,1592 L 1769,1592 L 1772,1595 L 1772,1596 L 1773,1597 L 1773,1599 L 1775,1601 L 1775,1604 L 1777,1604 L 1778,1603 L 1780,1603 L 1780,1598 L 1779,1597 L 1779,1592 L 1778,1591 L 1778,1587 L 1777,1586 L 1777,1580 L 1776,1579 L 1776,1575 L 1775,1574 L 1775,1571 L 1774,1570 L 1774,1569 L 1775,1568 L 1777,1570 L 1778,1570 L 1779,1571 L 1780,1571 L 1782,1573 L 1783,1573 L 1784,1574 L 1784,1575 L 1787,1578 L 1787,1579 L 1789,1581 L 1789,1582 L 1790,1583 L 1790,1584 L 1793,1584 L 1794,1583 L 1795,1583 L 1795,1582 L 1794,1581 L 1794,1578 L 1793,1577 L 1793,1573 L 1792,1572 L 1792,1569 L 1791,1568 L 1791,1565 L 1790,1564 L 1790,1560 L 1789,1559 L 1789,1554 L 1788,1553 Z" fill="orange" /></g><g id="layer13"><path d="M 1215,1553 L 1213,1555 L 1212,1555 L 1211,1556 L 1210,1555 L 1209,1556 L 1206,1556 L 1205,1555 L 1154,1555 L 1154,1560 L 1155,1561 L 1158,1561 L 1160,1563 L 1160,1564 L 1161,1565 L 1161,1566 L 1162,1567 L 1162,1632 L 1161,1633 L 1161,1634 L 1159,1636 L 1159,1637 L 1158,1638 L 1154,1638 L 1154,1643 L 1211,1643 L 1212,1642 L 1214,1642 L 1218,1646 L 1219,1646 L 1219,1645 L 1220,1644 L 1220,1642 L 1221,1641 L 1221,1638 L 1222,1637 L 1222,1636 L 1223,1635 L 1223,1633 L 1224,1632 L 1224,1630 L 1225,1629 L 1225,1626 L 1226,1625 L 1226,1623 L 1227,1622 L 1227,1620 L 1228,1619 L 1228,1617 L 1229,1616 L 1229,1613 L 1230,1612 L 1230,1611 L 1231,1610 L 1229,1608 L 1226,1608 L 1225,1609 L 1225,1611 L 1222,1614 L 1222,1616 L 1218,1620 L 1218,1621 L 1213,1626 L 1212,1626 L 1209,1629 L 1208,1629 L 1207,1630 L 1206,1630 L 1205,1631 L 1203,1631 L 1202,1632 L 1198,1632 L 1197,1633 L 1186,1633 L 1185,1632 L 1183,1632 L 1180,1629 L 1180,1590 L 1181,1589 L 1189,1589 L 1190,1590 L 1194,1590 L 1195,1591 L 1196,1591 L 1201,1596 L 1201,1597 L 1202,1598 L 1202,1599 L 1203,1600 L 1203,1601 L 1204,1602 L 1204,1604 L 1206,1604 L 1207,1603 L 1209,1603 L 1209,1600 L 1208,1599 L 1208,1594 L 1207,1593 L 1207,1588 L 1206,1587 L 1206,1582 L 1205,1581 L 1205,1576 L 1204,1575 L 1204,1572 L 1203,1571 L 1203,1570 L 1204,1569 L 1205,1569 L 1206,1570 L 1207,1570 L 1210,1573 L 1211,1573 L 1215,1577 L 1215,1578 L 1217,1580 L 1217,1581 L 1218,1582 L 1218,1583 L 1219,1584 L 1221,1584 L 1222,1583 L 1223,1583 L 1223,1579 L 1222,1578 L 1222,1575 L 1221,1574 L 1221,1569 L 1220,1568 L 1220,1566 L 1219,1565 L 1219,1561 L 1218,1560 L 1218,1557 L 1217,1556 L 1217,1553 Z" fill="orange" /></g><g id="layer14"><path d="M 819,1552 L 819,1553 L 818,1554 L 818,1555 L 817,1556 L 816,1555 L 789,1555 L 788,1556 L 789,1557 L 788,1558 L 789,1559 L 789,1560 L 790,1561 L 793,1561 L 795,1563 L 795,1564 L 796,1565 L 796,1566 L 797,1567 L 797,1617 L 796,1618 L 796,1621 L 795,1622 L 795,1623 L 788,1630 L 787,1630 L 786,1631 L 784,1631 L 783,1632 L 770,1632 L 769,1631 L 767,1631 L 766,1630 L 765,1630 L 763,1628 L 763,1627 L 760,1624 L 760,1622 L 759,1621 L 759,1616 L 758,1615 L 758,1567 L 759,1566 L 759,1565 L 760,1564 L 760,1563 L 762,1561 L 764,1561 L 765,1560 L 766,1560 L 766,1559 L 767,1558 L 766,1557 L 766,1555 L 733,1555 L 732,1556 L 732,1558 L 733,1559 L 733,1560 L 734,1561 L 737,1561 L 739,1563 L 739,1564 L 740,1565 L 740,1568 L 741,1569 L 741,1623 L 742,1624 L 742,1626 L 743,1627 L 743,1628 L 744,1629 L 744,1630 L 745,1631 L 745,1632 L 750,1637 L 751,1637 L 753,1639 L 754,1639 L 755,1640 L 756,1640 L 757,1641 L 760,1641 L 761,1642 L 765,1642 L 766,1643 L 784,1643 L 785,1642 L 788,1642 L 789,1641 L 791,1641 L 792,1640 L 793,1640 L 794,1639 L 795,1639 L 796,1638 L 797,1638 L 804,1631 L 804,1630 L 805,1629 L 805,1628 L 806,1627 L 806,1626 L 807,1625 L 807,1622 L 808,1621 L 808,1616 L 809,1615 L 809,1566 L 810,1565 L 810,1564 L 812,1562 L 813,1562 L 814,1561 L 815,1561 L 816,1562 L 816,1566 L 815,1567 L 815,1569 L 814,1570 L 814,1575 L 813,1576 L 813,1578 L 812,1579 L 812,1582 L 813,1583 L 815,1583 L 816,1584 L 817,1583 L 817,1581 L 819,1579 L 819,1578 L 820,1577 L 820,1576 L 826,1570 L 827,1570 L 829,1568 L 830,1568 L 832,1566 L 835,1566 L 836,1565 L 840,1565 L 842,1567 L 842,1633 L 841,1634 L 841,1635 L 839,1637 L 838,1637 L 837,1638 L 835,1638 L 834,1639 L 834,1643 L 868,1643 L 868,1638 L 865,1638 L 864,1637 L 863,1637 L 861,1635 L 861,1632 L 860,1631 L 860,1566 L 861,1565 L 865,1565 L 866,1566 L 869,1566 L 870,1567 L 871,1567 L 872,1568 L 873,1568 L 874,1569 L 875,1569 L 882,1576 L 882,1577 L 884,1579 L 884,1581 L 885,1582 L 885,1583 L 889,1583 L 890,1582 L 891,1582 L 890,1581 L 890,1578 L 889,1577 L 889,1574 L 888,1573 L 888,1571 L 887,1570 L 887,1567 L 886,1566 L 886,1563 L 885,1562 L 885,1558 L 884,1557 L 884,1552 L 882,1552 L 882,1553 L 881,1554 L 880,1554 L 879,1555 L 878,1555 L 877,1556 L 848,1556 L 847,1555 L 823,1555 L 822,1554 L 822,1553 L 821,1552 Z" fill="orange" /></g><g id="layer15"><path d="M 396,1552 L 393,1555 L 392,1555 L 391,1556 L 389,1556 L 388,1555 L 334,1555 L 334,1560 L 335,1560 L 336,1561 L 337,1561 L 338,1562 L 339,1562 L 340,1563 L 340,1564 L 341,1565 L 341,1566 L 342,1567 L 342,1632 L 341,1633 L 341,1634 L 337,1638 L 334,1638 L 334,1642 L 335,1643 L 390,1643 L 391,1642 L 394,1642 L 398,1646 L 399,1646 L 399,1645 L 400,1644 L 400,1642 L 401,1641 L 401,1638 L 402,1637 L 402,1635 L 403,1634 L 403,1632 L 404,1631 L 404,1630 L 405,1629 L 405,1626 L 406,1625 L 406,1623 L 407,1622 L 407,1620 L 408,1619 L 408,1618 L 409,1617 L 409,1614 L 410,1613 L 410,1611 L 411,1610 L 411,1609 L 410,1609 L 409,1608 L 406,1608 L 404,1610 L 404,1613 L 401,1616 L 401,1617 L 398,1620 L 398,1621 L 393,1626 L 392,1626 L 389,1629 L 388,1629 L 387,1630 L 386,1630 L 385,1631 L 384,1631 L 383,1632 L 378,1632 L 377,1633 L 365,1633 L 364,1632 L 363,1632 L 360,1629 L 361,1628 L 360,1627 L 360,1590 L 361,1589 L 370,1589 L 371,1590 L 373,1590 L 374,1591 L 376,1591 L 378,1593 L 379,1593 L 380,1594 L 380,1595 L 382,1597 L 382,1598 L 383,1599 L 383,1601 L 384,1602 L 384,1604 L 385,1604 L 386,1603 L 389,1603 L 389,1600 L 388,1599 L 388,1595 L 387,1594 L 387,1588 L 386,1587 L 386,1582 L 385,1581 L 385,1576 L 384,1575 L 384,1571 L 385,1570 L 386,1571 L 387,1570 L 389,1572 L 390,1572 L 393,1575 L 393,1576 L 394,1576 L 395,1577 L 395,1578 L 397,1580 L 397,1581 L 398,1582 L 398,1583 L 399,1584 L 402,1584 L 403,1583 L 403,1579 L 402,1578 L 402,1574 L 401,1573 L 401,1570 L 400,1569 L 400,1565 L 399,1564 L 399,1560 L 398,1559 L 398,1556 L 397,1555 L 397,1553 Z" fill="orange" /></g><g id="layer16"><path d="M 709,1551 L 704,1556 L 703,1555 L 702,1555 L 701,1554 L 677,1554 L 676,1555 L 671,1555 L 670,1556 L 666,1556 L 665,1557 L 664,1557 L 663,1558 L 662,1558 L 660,1560 L 658,1560 L 655,1563 L 654,1563 L 651,1566 L 651,1567 L 647,1571 L 647,1572 L 646,1573 L 646,1574 L 645,1575 L 645,1576 L 644,1577 L 644,1580 L 643,1581 L 643,1582 L 642,1583 L 642,1587 L 641,1588 L 641,1605 L 642,1606 L 642,1610 L 643,1611 L 643,1613 L 644,1614 L 644,1615 L 645,1616 L 645,1617 L 646,1618 L 646,1619 L 647,1620 L 647,1621 L 649,1623 L 649,1624 L 652,1627 L 652,1628 L 653,1628 L 657,1632 L 658,1632 L 660,1634 L 661,1634 L 663,1636 L 664,1636 L 665,1637 L 666,1637 L 667,1638 L 668,1638 L 669,1639 L 671,1639 L 672,1640 L 674,1640 L 675,1641 L 679,1641 L 680,1642 L 728,1642 L 728,1638 L 727,1637 L 725,1637 L 722,1634 L 722,1590 L 724,1588 L 725,1588 L 727,1586 L 728,1586 L 728,1582 L 715,1582 L 714,1581 L 714,1580 L 715,1579 L 715,1577 L 714,1576 L 714,1571 L 713,1570 L 713,1565 L 712,1564 L 712,1561 L 711,1560 L 711,1555 L 710,1554 L 710,1551 Z" fill="orange" /></g><g id="layer17"><path d="M 880,1501 L 879,1502 L 248,1502 L 248,1518 L 1804,1518 L 1804,1502 L 921,1502 L 920,1501 L 919,1502 L 912,1502 L 911,1501 Z" fill="orange" /></g><g id="layer18"><path d="M 258,1253 Z" fill="orange" /></g><g id="layer19"><path d="M 1658,1238 L 1658,1239 L 1659,1240 L 1659,1241 L 1661,1243 L 1661,1244 L 1662,1244 L 1665,1247 L 1666,1247 L 1668,1249 L 1669,1249 L 1671,1251 L 1672,1251 L 1674,1253 L 1675,1253 L 1676,1254 L 1677,1254 L 1679,1256 L 1680,1256 L 1681,1257 L 1682,1257 L 1683,1258 L 1684,1258 L 1685,1259 L 1686,1259 L 1687,1260 L 1688,1260 L 1689,1261 L 1691,1261 L 1692,1262 L 1695,1262 L 1696,1263 L 1701,1263 L 1702,1264 L 1711,1264 L 1712,1265 L 1715,1265 L 1716,1264 L 1735,1264 L 1736,1263 L 1745,1263 L 1746,1262 L 1752,1262 L 1753,1261 L 1759,1261 L 1760,1260 L 1764,1260 L 1765,1259 L 1770,1259 L 1771,1260 L 1771,1281 L 1768,1284 L 1766,1284 L 1765,1285 L 1764,1285 L 1763,1286 L 1754,1286 L 1753,1285 L 1750,1285 L 1749,1284 L 1748,1284 L 1747,1283 L 1746,1283 L 1745,1282 L 1744,1282 L 1743,1281 L 1742,1281 L 1741,1280 L 1740,1280 L 1739,1279 L 1738,1279 L 1737,1278 L 1736,1278 L 1735,1277 L 1734,1277 L 1733,1276 L 1732,1276 L 1731,1275 L 1730,1275 L 1729,1274 L 1728,1274 L 1727,1273 L 1725,1273 L 1723,1275 L 1723,1278 L 1725,1280 L 1726,1280 L 1727,1281 L 1728,1281 L 1730,1283 L 1731,1283 L 1732,1284 L 1733,1284 L 1734,1285 L 1735,1285 L 1736,1286 L 1737,1286 L 1739,1288 L 1740,1288 L 1741,1289 L 1742,1289 L 1743,1290 L 1744,1290 L 1746,1292 L 1747,1292 L 1748,1293 L 1749,1293 L 1750,1294 L 1751,1294 L 1752,1295 L 1753,1295 L 1755,1297 L 1756,1297 L 1757,1298 L 1758,1298 L 1759,1299 L 1760,1299 L 1762,1301 L 1763,1301 L 1764,1302 L 1765,1302 L 1766,1303 L 1767,1303 L 1769,1305 L 1770,1305 L 1771,1306 L 1771,1310 L 1772,1311 L 1771,1312 L 1771,1314 L 1772,1315 L 1771,1316 L 1771,1317 L 1770,1318 L 1769,1317 L 1768,1317 L 1767,1316 L 1766,1316 L 1765,1315 L 1764,1315 L 1763,1314 L 1762,1314 L 1761,1313 L 1760,1313 L 1759,1312 L 1758,1312 L 1757,1311 L 1756,1311 L 1755,1310 L 1754,1310 L 1753,1309 L 1752,1309 L 1751,1308 L 1750,1308 L 1749,1307 L 1748,1307 L 1747,1306 L 1746,1306 L 1745,1305 L 1744,1305 L 1743,1304 L 1741,1304 L 1740,1303 L 1739,1303 L 1738,1302 L 1736,1302 L 1735,1301 L 1734,1301 L 1733,1300 L 1731,1300 L 1730,1299 L 1728,1299 L 1727,1298 L 1724,1298 L 1723,1297 L 1721,1297 L 1720,1296 L 1717,1296 L 1716,1295 L 1714,1295 L 1713,1294 L 1707,1294 L 1706,1293 L 1692,1293 L 1691,1294 L 1689,1294 L 1688,1295 L 1687,1295 L 1686,1296 L 1685,1296 L 1684,1297 L 1683,1297 L 1682,1298 L 1681,1298 L 1680,1299 L 1679,1299 L 1675,1303 L 1674,1303 L 1671,1306 L 1671,1307 L 1669,1309 L 1669,1310 L 1668,1311 L 1668,1312 L 1667,1313 L 1667,1314 L 1666,1315 L 1666,1316 L 1665,1317 L 1665,1320 L 1664,1321 L 1664,1337 L 1665,1338 L 1665,1340 L 1666,1341 L 1666,1343 L 1667,1344 L 1667,1345 L 1670,1348 L 1670,1349 L 1677,1356 L 1678,1356 L 1682,1360 L 1681,1361 L 1682,1360 L 1683,1360 L 1684,1361 L 1685,1361 L 1687,1363 L 1689,1363 L 1691,1365 L 1693,1365 L 1694,1366 L 1695,1366 L 1696,1367 L 1698,1367 L 1699,1368 L 1701,1368 L 1702,1369 L 1706,1369 L 1707,1370 L 1717,1370 L 1718,1369 L 1722,1369 L 1723,1368 L 1724,1368 L 1725,1367 L 1727,1367 L 1728,1366 L 1729,1366 L 1730,1365 L 1731,1365 L 1732,1364 L 1733,1364 L 1736,1361 L 1737,1361 L 1740,1358 L 1740,1357 L 1742,1355 L 1742,1354 L 1743,1353 L 1743,1351 L 1744,1350 L 1744,1347 L 1745,1346 L 1745,1340 L 1744,1339 L 1744,1336 L 1743,1335 L 1743,1334 L 1742,1333 L 1742,1332 L 1741,1331 L 1741,1330 L 1739,1328 L 1739,1327 L 1738,1327 L 1731,1320 L 1731,1319 L 1729,1317 L 1729,1316 L 1728,1315 L 1728,1314 L 1729,1313 L 1729,1312 L 1730,1311 L 1731,1311 L 1732,1310 L 1734,1310 L 1735,1311 L 1738,1311 L 1739,1312 L 1740,1312 L 1741,1313 L 1742,1313 L 1744,1315 L 1745,1315 L 1746,1316 L 1747,1316 L 1748,1317 L 1749,1317 L 1750,1318 L 1751,1318 L 1753,1320 L 1754,1320 L 1755,1321 L 1756,1321 L 1758,1323 L 1759,1323 L 1760,1324 L 1761,1324 L 1762,1325 L 1763,1325 L 1764,1326 L 1765,1326 L 1766,1327 L 1767,1327 L 1771,1331 L 1771,1431 L 1773,1433 L 1774,1433 L 1778,1437 L 1779,1437 L 1780,1438 L 1781,1438 L 1784,1441 L 1785,1441 L 1787,1443 L 1788,1443 L 1790,1445 L 1791,1445 L 1794,1448 L 1795,1448 L 1796,1449 L 1797,1449 L 1799,1451 L 1800,1451 L 1803,1454 L 1804,1454 L 1806,1456 L 1807,1456 L 1809,1458 L 1810,1458 L 1812,1460 L 1813,1460 L 1816,1463 L 1817,1463 L 1819,1465 L 1820,1465 L 1821,1466 L 1822,1466 L 1823,1467 L 1824,1466 L 1826,1466 L 1829,1463 L 1829,1462 L 1830,1461 L 1828,1459 L 1827,1459 L 1824,1456 L 1823,1456 L 1821,1454 L 1820,1454 L 1819,1453 L 1818,1453 L 1816,1451 L 1815,1451 L 1813,1449 L 1812,1449 L 1810,1447 L 1809,1447 L 1808,1446 L 1807,1446 L 1805,1444 L 1804,1444 L 1801,1441 L 1801,1238 Z" fill="orange" /></g><g id="layer20"><path d="M 1518,1238 L 1519,1239 L 1519,1240 L 1523,1244 L 1523,1245 L 1527,1249 L 1528,1249 L 1530,1251 L 1531,1251 L 1534,1254 L 1535,1254 L 1536,1255 L 1537,1255 L 1538,1256 L 1539,1256 L 1540,1257 L 1541,1257 L 1542,1258 L 1544,1258 L 1545,1259 L 1546,1259 L 1547,1260 L 1549,1260 L 1550,1261 L 1553,1261 L 1554,1262 L 1557,1262 L 1558,1263 L 1565,1263 L 1566,1264 L 1594,1264 L 1595,1263 L 1602,1263 L 1603,1262 L 1609,1262 L 1610,1261 L 1611,1262 L 1612,1262 L 1613,1261 L 1616,1261 L 1617,1260 L 1622,1260 L 1623,1259 L 1625,1259 L 1626,1260 L 1626,1324 L 1625,1325 L 1624,1324 L 1623,1324 L 1622,1323 L 1621,1323 L 1620,1322 L 1619,1322 L 1618,1321 L 1617,1321 L 1616,1320 L 1614,1320 L 1613,1319 L 1612,1319 L 1611,1318 L 1609,1318 L 1608,1317 L 1606,1317 L 1605,1316 L 1602,1316 L 1601,1315 L 1596,1315 L 1595,1314 L 1575,1314 L 1574,1315 L 1570,1315 L 1569,1316 L 1566,1316 L 1565,1317 L 1564,1317 L 1563,1318 L 1562,1318 L 1561,1319 L 1560,1319 L 1558,1321 L 1557,1321 L 1555,1323 L 1554,1323 L 1547,1330 L 1547,1331 L 1545,1333 L 1545,1334 L 1544,1335 L 1544,1336 L 1542,1338 L 1542,1339 L 1541,1340 L 1541,1341 L 1540,1342 L 1540,1344 L 1539,1345 L 1539,1346 L 1538,1347 L 1538,1349 L 1537,1350 L 1537,1353 L 1536,1354 L 1536,1359 L 1535,1360 L 1535,1378 L 1536,1379 L 1537,1379 L 1538,1380 L 1539,1380 L 1541,1382 L 1542,1382 L 1544,1384 L 1545,1384 L 1547,1386 L 1548,1386 L 1549,1387 L 1550,1387 L 1552,1389 L 1553,1389 L 1555,1391 L 1556,1391 L 1558,1393 L 1559,1393 L 1560,1394 L 1561,1394 L 1563,1396 L 1564,1396 L 1565,1397 L 1566,1397 L 1568,1399 L 1569,1399 L 1571,1401 L 1572,1401 L 1574,1403 L 1575,1403 L 1576,1404 L 1577,1404 L 1579,1406 L 1580,1406 L 1582,1408 L 1583,1408 L 1584,1409 L 1585,1409 L 1587,1411 L 1588,1411 L 1590,1413 L 1591,1413 L 1592,1414 L 1593,1414 L 1595,1416 L 1596,1416 L 1597,1417 L 1598,1417 L 1600,1419 L 1601,1419 L 1603,1421 L 1604,1421 L 1605,1422 L 1606,1422 L 1608,1424 L 1609,1424 L 1610,1425 L 1611,1425 L 1613,1427 L 1614,1427 L 1616,1429 L 1617,1429 L 1619,1431 L 1620,1431 L 1622,1433 L 1623,1433 L 1624,1434 L 1625,1434 L 1627,1436 L 1628,1436 L 1629,1437 L 1630,1437 L 1632,1439 L 1633,1439 L 1635,1441 L 1636,1441 L 1637,1442 L 1638,1442 L 1641,1445 L 1642,1445 L 1643,1446 L 1644,1446 L 1646,1448 L 1647,1448 L 1648,1449 L 1649,1449 L 1651,1451 L 1652,1451 L 1654,1453 L 1655,1453 L 1657,1455 L 1658,1455 L 1659,1456 L 1660,1456 L 1661,1457 L 1662,1457 L 1664,1459 L 1665,1459 L 1667,1461 L 1668,1461 L 1670,1463 L 1671,1463 L 1672,1464 L 1673,1464 L 1675,1466 L 1679,1466 L 1680,1465 L 1681,1465 L 1681,1464 L 1682,1463 L 1682,1459 L 1680,1457 L 1679,1457 L 1677,1455 L 1676,1455 L 1675,1454 L 1674,1454 L 1672,1452 L 1671,1452 L 1670,1451 L 1669,1451 L 1667,1449 L 1666,1449 L 1665,1448 L 1664,1448 L 1661,1445 L 1660,1445 L 1659,1444 L 1658,1444 L 1655,1441 L 1655,1238 Z" fill="orange" /></g><g id="layer21"><path d="M 1367,1238 L 1367,1240 L 1376,1249 L 1377,1249 L 1380,1252 L 1381,1252 L 1383,1254 L 1384,1254 L 1385,1255 L 1386,1255 L 1388,1257 L 1389,1257 L 1390,1258 L 1391,1258 L 1392,1259 L 1393,1259 L 1394,1260 L 1395,1260 L 1396,1261 L 1397,1261 L 1398,1262 L 1401,1262 L 1402,1263 L 1406,1263 L 1407,1264 L 1418,1264 L 1419,1265 L 1439,1265 L 1440,1264 L 1441,1265 L 1442,1264 L 1448,1264 L 1449,1263 L 1455,1263 L 1456,1262 L 1462,1262 L 1463,1261 L 1469,1261 L 1470,1260 L 1474,1260 L 1475,1259 L 1482,1259 L 1483,1258 L 1485,1258 L 1486,1259 L 1486,1329 L 1485,1330 L 1484,1329 L 1483,1329 L 1482,1328 L 1481,1328 L 1479,1326 L 1478,1326 L 1477,1325 L 1476,1325 L 1474,1323 L 1473,1323 L 1472,1322 L 1471,1322 L 1469,1320 L 1468,1320 L 1467,1319 L 1466,1319 L 1464,1317 L 1463,1317 L 1462,1316 L 1461,1316 L 1460,1315 L 1459,1315 L 1457,1313 L 1456,1313 L 1455,1312 L 1454,1312 L 1452,1310 L 1451,1310 L 1449,1308 L 1448,1308 L 1447,1307 L 1446,1307 L 1444,1305 L 1443,1305 L 1442,1304 L 1441,1304 L 1440,1303 L 1439,1303 L 1437,1301 L 1436,1301 L 1435,1300 L 1434,1300 L 1433,1299 L 1432,1299 L 1430,1297 L 1429,1297 L 1427,1295 L 1426,1295 L 1425,1294 L 1424,1294 L 1423,1293 L 1422,1293 L 1421,1292 L 1419,1292 L 1418,1293 L 1418,1294 L 1416,1296 L 1416,1298 L 1417,1299 L 1418,1299 L 1419,1300 L 1420,1300 L 1421,1301 L 1422,1301 L 1424,1303 L 1425,1303 L 1426,1304 L 1427,1304 L 1429,1306 L 1430,1306 L 1432,1308 L 1432,1316 L 1431,1317 L 1430,1317 L 1428,1315 L 1427,1315 L 1426,1314 L 1425,1314 L 1424,1313 L 1423,1313 L 1422,1312 L 1420,1312 L 1419,1311 L 1418,1311 L 1417,1310 L 1414,1310 L 1413,1309 L 1393,1309 L 1392,1310 L 1389,1310 L 1388,1311 L 1386,1311 L 1385,1312 L 1384,1312 L 1382,1314 L 1381,1314 L 1380,1315 L 1379,1315 L 1376,1318 L 1375,1318 L 1373,1320 L 1373,1321 L 1370,1324 L 1370,1325 L 1369,1326 L 1369,1327 L 1368,1328 L 1368,1329 L 1367,1330 L 1367,1331 L 1366,1332 L 1366,1335 L 1365,1336 L 1365,1339 L 1364,1340 L 1365,1341 L 1364,1342 L 1364,1351 L 1365,1352 L 1365,1355 L 1366,1356 L 1366,1359 L 1367,1360 L 1367,1361 L 1368,1362 L 1368,1364 L 1369,1365 L 1369,1366 L 1370,1367 L 1370,1368 L 1372,1370 L 1372,1371 L 1375,1374 L 1375,1375 L 1385,1385 L 1386,1385 L 1389,1388 L 1390,1388 L 1393,1391 L 1394,1391 L 1397,1394 L 1398,1394 L 1402,1398 L 1403,1398 L 1407,1402 L 1408,1402 L 1410,1404 L 1411,1404 L 1415,1408 L 1416,1408 L 1419,1411 L 1420,1411 L 1424,1415 L 1425,1415 L 1427,1417 L 1428,1417 L 1432,1421 L 1433,1421 L 1436,1424 L 1437,1424 L 1440,1427 L 1441,1427 L 1444,1430 L 1445,1430 L 1448,1433 L 1449,1433 L 1453,1437 L 1454,1437 L 1457,1440 L 1458,1440 L 1461,1443 L 1462,1443 L 1465,1446 L 1466,1446 L 1469,1449 L 1470,1449 L 1474,1453 L 1475,1453 L 1479,1457 L 1480,1457 L 1483,1460 L 1484,1460 L 1487,1463 L 1488,1463 L 1489,1464 L 1494,1464 L 1495,1463 L 1495,1461 L 1494,1460 L 1494,1459 L 1489,1454 L 1488,1454 L 1486,1452 L 1485,1452 L 1479,1446 L 1478,1446 L 1475,1443 L 1474,1443 L 1470,1439 L 1469,1439 L 1464,1434 L 1463,1434 L 1459,1430 L 1458,1430 L 1453,1425 L 1452,1425 L 1447,1420 L 1446,1420 L 1441,1415 L 1440,1415 L 1437,1412 L 1436,1412 L 1435,1411 L 1435,1410 L 1434,1410 L 1432,1408 L 1431,1408 L 1425,1402 L 1424,1402 L 1421,1399 L 1420,1399 L 1415,1394 L 1414,1394 L 1409,1389 L 1408,1389 L 1405,1386 L 1404,1386 L 1400,1382 L 1399,1382 L 1397,1380 L 1397,1379 L 1396,1378 L 1396,1377 L 1395,1376 L 1395,1375 L 1394,1374 L 1394,1371 L 1393,1370 L 1393,1354 L 1394,1353 L 1394,1349 L 1395,1348 L 1395,1347 L 1396,1346 L 1396,1345 L 1397,1344 L 1397,1343 L 1401,1339 L 1401,1338 L 1403,1336 L 1404,1336 L 1405,1335 L 1406,1335 L 1408,1333 L 1409,1333 L 1410,1332 L 1413,1332 L 1414,1331 L 1418,1331 L 1419,1330 L 1427,1330 L 1428,1329 L 1429,1330 L 1431,1330 L 1432,1331 L 1432,1348 L 1431,1349 L 1426,1349 L 1425,1350 L 1421,1350 L 1420,1351 L 1419,1351 L 1418,1352 L 1417,1352 L 1414,1355 L 1414,1358 L 1413,1359 L 1413,1369 L 1414,1370 L 1414,1373 L 1415,1374 L 1415,1376 L 1416,1377 L 1416,1378 L 1417,1378 L 1419,1380 L 1420,1380 L 1422,1382 L 1423,1382 L 1426,1385 L 1427,1385 L 1428,1386 L 1429,1386 L 1431,1388 L 1432,1388 L 1434,1390 L 1435,1390 L 1438,1393 L 1440,1393 L 1441,1394 L 1443,1394 L 1444,1395 L 1454,1395 L 1455,1394 L 1456,1394 L 1457,1393 L 1458,1393 L 1461,1390 L 1461,1389 L 1462,1388 L 1462,1387 L 1463,1386 L 1463,1383 L 1464,1382 L 1464,1374 L 1465,1373 L 1465,1372 L 1464,1371 L 1464,1368 L 1465,1367 L 1465,1361 L 1464,1360 L 1464,1349 L 1465,1348 L 1465,1337 L 1464,1336 L 1465,1335 L 1464,1334 L 1465,1333 L 1464,1332 L 1464,1331 L 1466,1329 L 1467,1330 L 1468,1330 L 1471,1333 L 1472,1333 L 1473,1334 L 1474,1334 L 1476,1336 L 1477,1336 L 1479,1338 L 1480,1338 L 1481,1339 L 1482,1339 L 1484,1341 L 1485,1341 L 1486,1342 L 1486,1435 L 1487,1435 L 1488,1436 L 1489,1436 L 1491,1438 L 1492,1438 L 1495,1441 L 1497,1441 L 1500,1444 L 1501,1444 L 1502,1445 L 1503,1445 L 1506,1448 L 1507,1448 L 1508,1449 L 1509,1449 L 1511,1451 L 1512,1451 L 1515,1454 L 1516,1454 L 1517,1455 L 1518,1455 L 1520,1457 L 1521,1457 L 1523,1459 L 1524,1459 L 1526,1461 L 1527,1461 L 1529,1463 L 1530,1463 L 1532,1465 L 1533,1465 L 1535,1467 L 1541,1467 L 1542,1466 L 1542,1465 L 1543,1464 L 1542,1463 L 1542,1462 L 1540,1460 L 1539,1460 L 1537,1458 L 1536,1458 L 1532,1454 L 1531,1454 L 1528,1451 L 1527,1451 L 1525,1449 L 1524,1449 L 1522,1447 L 1521,1447 L 1516,1442 L 1516,1239 L 1515,1238 Z" fill="orange" /></g><g id="layer22"><path d="M 1220,1238 L 1220,1240 L 1228,1248 L 1229,1248 L 1234,1253 L 1233,1254 L 1231,1254 L 1230,1255 L 1229,1255 L 1228,1256 L 1227,1256 L 1226,1257 L 1225,1257 L 1224,1258 L 1223,1258 L 1221,1260 L 1220,1260 L 1217,1263 L 1217,1264 L 1216,1265 L 1216,1266 L 1215,1267 L 1215,1278 L 1216,1279 L 1216,1280 L 1217,1281 L 1217,1282 L 1218,1283 L 1219,1283 L 1221,1285 L 1222,1285 L 1223,1286 L 1225,1286 L 1226,1287 L 1234,1287 L 1235,1286 L 1239,1286 L 1240,1285 L 1241,1285 L 1242,1284 L 1243,1284 L 1244,1283 L 1245,1283 L 1247,1281 L 1247,1280 L 1249,1278 L 1249,1275 L 1250,1274 L 1250,1268 L 1249,1267 L 1249,1265 L 1247,1263 L 1246,1263 L 1245,1262 L 1243,1262 L 1242,1261 L 1238,1261 L 1236,1259 L 1236,1258 L 1237,1257 L 1239,1257 L 1240,1256 L 1241,1257 L 1243,1257 L 1244,1258 L 1245,1258 L 1247,1260 L 1248,1260 L 1249,1261 L 1251,1261 L 1252,1262 L 1253,1262 L 1254,1263 L 1258,1263 L 1259,1264 L 1263,1264 L 1264,1265 L 1277,1265 L 1278,1266 L 1278,1267 L 1279,1268 L 1279,1278 L 1278,1279 L 1279,1280 L 1279,1303 L 1277,1305 L 1276,1304 L 1265,1304 L 1264,1305 L 1259,1305 L 1258,1306 L 1253,1306 L 1252,1307 L 1251,1307 L 1250,1308 L 1248,1308 L 1247,1309 L 1246,1309 L 1243,1312 L 1242,1312 L 1240,1314 L 1240,1315 L 1238,1317 L 1238,1318 L 1237,1319 L 1237,1322 L 1236,1323 L 1236,1336 L 1237,1337 L 1237,1339 L 1238,1340 L 1238,1342 L 1239,1343 L 1239,1345 L 1240,1346 L 1240,1347 L 1241,1348 L 1241,1349 L 1244,1352 L 1244,1353 L 1246,1355 L 1246,1356 L 1247,1356 L 1255,1364 L 1256,1364 L 1259,1367 L 1260,1367 L 1262,1369 L 1263,1369 L 1264,1370 L 1265,1370 L 1266,1371 L 1267,1371 L 1269,1373 L 1270,1373 L 1271,1374 L 1272,1374 L 1273,1375 L 1276,1375 L 1277,1376 L 1292,1376 L 1293,1375 L 1294,1375 L 1295,1374 L 1296,1374 L 1298,1372 L 1299,1372 L 1303,1368 L 1303,1367 L 1304,1366 L 1304,1365 L 1305,1364 L 1305,1363 L 1306,1362 L 1306,1360 L 1307,1359 L 1307,1356 L 1308,1355 L 1308,1335 L 1309,1334 L 1310,1335 L 1311,1335 L 1313,1337 L 1314,1337 L 1315,1338 L 1316,1338 L 1317,1339 L 1318,1339 L 1319,1340 L 1320,1340 L 1322,1342 L 1323,1342 L 1324,1343 L 1325,1343 L 1326,1344 L 1327,1344 L 1330,1347 L 1330,1433 L 1331,1433 L 1332,1434 L 1333,1434 L 1336,1437 L 1337,1437 L 1340,1440 L 1341,1440 L 1342,1441 L 1343,1441 L 1346,1444 L 1347,1444 L 1349,1446 L 1350,1446 L 1351,1447 L 1352,1447 L 1354,1449 L 1355,1449 L 1358,1452 L 1359,1452 L 1361,1454 L 1362,1454 L 1364,1456 L 1365,1456 L 1367,1458 L 1368,1458 L 1370,1460 L 1371,1460 L 1373,1462 L 1374,1462 L 1377,1465 L 1378,1465 L 1379,1466 L 1383,1466 L 1384,1465 L 1385,1465 L 1386,1464 L 1386,1460 L 1385,1459 L 1385,1458 L 1384,1457 L 1383,1457 L 1381,1455 L 1380,1455 L 1378,1453 L 1377,1453 L 1376,1452 L 1375,1452 L 1372,1449 L 1371,1449 L 1369,1447 L 1368,1447 L 1367,1446 L 1366,1446 L 1365,1445 L 1364,1445 L 1362,1443 L 1361,1443 L 1359,1441 L 1359,1239 L 1358,1238 Z" fill="orange" /></g><g id="layer23"><path d="M 760,1238 L 759,1239 L 762,1242 L 762,1243 L 772,1253 L 773,1253 L 775,1255 L 776,1255 L 778,1257 L 779,1257 L 780,1258 L 781,1258 L 782,1259 L 783,1259 L 784,1260 L 786,1260 L 787,1261 L 789,1261 L 790,1262 L 793,1262 L 794,1263 L 799,1263 L 800,1264 L 832,1264 L 833,1265 L 833,1300 L 832,1301 L 830,1301 L 829,1300 L 823,1300 L 822,1299 L 808,1299 L 807,1300 L 805,1300 L 804,1301 L 803,1301 L 802,1302 L 801,1302 L 797,1306 L 797,1307 L 795,1309 L 795,1310 L 794,1311 L 794,1312 L 793,1313 L 793,1315 L 792,1316 L 792,1318 L 791,1319 L 791,1325 L 790,1326 L 790,1331 L 786,1335 L 785,1335 L 784,1336 L 776,1336 L 775,1335 L 772,1335 L 771,1334 L 768,1334 L 768,1335 L 767,1336 L 767,1338 L 766,1339 L 767,1340 L 767,1341 L 768,1341 L 769,1342 L 770,1342 L 772,1344 L 773,1344 L 775,1346 L 776,1346 L 777,1347 L 778,1347 L 780,1349 L 781,1349 L 783,1351 L 784,1351 L 785,1352 L 786,1352 L 788,1354 L 789,1354 L 790,1355 L 791,1355 L 793,1357 L 794,1357 L 795,1358 L 796,1358 L 799,1361 L 800,1361 L 801,1362 L 802,1362 L 803,1363 L 804,1363 L 806,1365 L 807,1365 L 809,1367 L 810,1367 L 812,1369 L 813,1369 L 814,1370 L 815,1370 L 816,1371 L 819,1371 L 820,1372 L 822,1372 L 823,1373 L 827,1373 L 828,1374 L 841,1374 L 842,1373 L 845,1373 L 846,1372 L 847,1372 L 848,1371 L 849,1371 L 850,1370 L 851,1370 L 858,1363 L 858,1362 L 859,1361 L 859,1360 L 860,1359 L 860,1358 L 861,1357 L 861,1356 L 862,1355 L 862,1353 L 863,1352 L 863,1261 L 864,1260 L 865,1260 L 866,1259 L 870,1259 L 871,1258 L 874,1258 L 875,1257 L 879,1257 L 880,1258 L 880,1259 L 881,1260 L 881,1278 L 880,1279 L 881,1280 L 881,1433 L 882,1433 L 883,1434 L 884,1434 L 886,1436 L 885,1437 L 885,1439 L 887,1441 L 887,1442 L 890,1445 L 890,1447 L 891,1448 L 891,1450 L 892,1451 L 892,1453 L 891,1454 L 891,1457 L 888,1460 L 882,1460 L 881,1459 L 880,1459 L 879,1458 L 878,1458 L 876,1456 L 875,1456 L 873,1454 L 872,1454 L 871,1453 L 870,1453 L 869,1452 L 868,1452 L 866,1450 L 865,1450 L 863,1448 L 862,1448 L 860,1446 L 859,1446 L 858,1445 L 857,1445 L 855,1443 L 854,1443 L 853,1442 L 852,1442 L 850,1440 L 849,1440 L 848,1439 L 847,1439 L 845,1437 L 844,1437 L 843,1436 L 842,1436 L 840,1434 L 839,1434 L 837,1432 L 836,1432 L 834,1430 L 833,1430 L 832,1429 L 831,1429 L 830,1428 L 829,1428 L 827,1426 L 826,1426 L 824,1424 L 823,1424 L 822,1423 L 821,1423 L 820,1422 L 819,1422 L 818,1421 L 816,1421 L 814,1423 L 814,1424 L 813,1425 L 813,1426 L 815,1428 L 816,1428 L 817,1429 L 818,1429 L 820,1431 L 821,1431 L 823,1433 L 824,1433 L 825,1434 L 826,1434 L 828,1436 L 829,1436 L 831,1438 L 832,1438 L 834,1440 L 835,1440 L 836,1441 L 837,1441 L 838,1442 L 839,1442 L 841,1444 L 842,1444 L 844,1446 L 845,1446 L 846,1447 L 847,1447 L 848,1448 L 849,1448 L 851,1450 L 852,1450 L 854,1452 L 855,1452 L 856,1453 L 857,1453 L 859,1455 L 860,1455 L 861,1456 L 862,1456 L 864,1458 L 865,1458 L 866,1459 L 867,1459 L 869,1461 L 870,1461 L 872,1463 L 873,1463 L 874,1464 L 875,1464 L 877,1466 L 878,1466 L 880,1468 L 881,1468 L 882,1469 L 883,1469 L 885,1471 L 886,1471 L 887,1472 L 888,1472 L 889,1473 L 890,1473 L 891,1474 L 892,1474 L 893,1475 L 895,1475 L 896,1476 L 903,1476 L 904,1475 L 905,1475 L 906,1474 L 907,1474 L 908,1473 L 909,1473 L 909,1472 L 911,1470 L 911,1469 L 912,1468 L 912,1466 L 913,1465 L 913,1456 L 914,1455 L 916,1457 L 917,1457 L 919,1459 L 920,1459 L 922,1461 L 923,1461 L 926,1464 L 928,1464 L 929,1465 L 936,1465 L 936,1464 L 937,1463 L 937,1462 L 936,1461 L 936,1460 L 935,1459 L 935,1458 L 934,1458 L 933,1457 L 933,1456 L 932,1456 L 930,1454 L 929,1454 L 927,1452 L 926,1452 L 924,1450 L 923,1450 L 921,1448 L 920,1448 L 918,1446 L 917,1446 L 915,1444 L 914,1444 L 911,1441 L 911,1239 L 910,1238 Z" fill="orange" /></g><g id="layer24"><path d="M 578,1238 L 578,1240 L 582,1244 L 582,1245 L 585,1248 L 585,1249 L 590,1254 L 590,1255 L 591,1256 L 591,1257 L 596,1262 L 596,1263 L 600,1267 L 600,1268 L 604,1272 L 604,1273 L 607,1276 L 607,1277 L 610,1280 L 610,1281 L 611,1282 L 610,1283 L 610,1284 L 607,1287 L 607,1288 L 604,1291 L 604,1292 L 600,1296 L 600,1297 L 596,1301 L 596,1302 L 592,1306 L 592,1307 L 589,1310 L 589,1311 L 585,1315 L 585,1316 L 583,1318 L 583,1319 L 584,1320 L 584,1321 L 588,1325 L 588,1326 L 590,1328 L 590,1329 L 597,1336 L 597,1337 L 600,1340 L 600,1341 L 604,1345 L 604,1346 L 607,1349 L 607,1350 L 613,1356 L 613,1357 L 610,1360 L 610,1361 L 607,1364 L 607,1365 L 602,1370 L 602,1371 L 598,1375 L 598,1376 L 595,1379 L 595,1380 L 591,1384 L 591,1385 L 587,1389 L 587,1390 L 584,1393 L 584,1395 L 587,1398 L 587,1399 L 591,1403 L 591,1404 L 595,1408 L 595,1409 L 600,1414 L 600,1415 L 603,1418 L 603,1419 L 607,1423 L 607,1424 L 610,1427 L 610,1428 L 615,1433 L 615,1434 L 618,1437 L 618,1438 L 622,1442 L 622,1443 L 625,1446 L 625,1447 L 629,1451 L 629,1452 L 633,1456 L 633,1457 L 637,1461 L 637,1462 L 639,1464 L 640,1464 L 641,1465 L 643,1465 L 644,1464 L 646,1464 L 648,1462 L 648,1453 L 644,1449 L 644,1448 L 640,1444 L 640,1443 L 636,1439 L 636,1438 L 632,1434 L 632,1433 L 627,1428 L 627,1427 L 626,1426 L 630,1422 L 630,1421 L 634,1417 L 634,1416 L 638,1412 L 638,1411 L 641,1408 L 641,1407 L 647,1401 L 647,1400 L 649,1398 L 649,1397 L 655,1391 L 655,1389 L 653,1387 L 653,1386 L 648,1381 L 648,1380 L 644,1376 L 644,1375 L 640,1371 L 640,1370 L 637,1367 L 637,1366 L 633,1362 L 633,1361 L 629,1357 L 629,1356 L 630,1355 L 630,1354 L 633,1351 L 633,1350 L 637,1346 L 637,1345 L 641,1341 L 641,1340 L 645,1336 L 645,1335 L 648,1332 L 648,1331 L 651,1328 L 651,1327 L 656,1322 L 656,1321 L 655,1320 L 655,1319 L 651,1315 L 651,1314 L 650,1314 L 649,1313 L 649,1312 L 647,1310 L 647,1309 L 641,1303 L 641,1302 L 638,1299 L 638,1298 L 633,1293 L 633,1292 L 629,1288 L 629,1287 L 625,1283 L 625,1281 L 629,1277 L 629,1276 L 631,1274 L 631,1273 L 634,1270 L 634,1269 L 636,1267 L 636,1266 L 639,1263 L 639,1262 L 642,1259 L 642,1258 L 645,1255 L 645,1254 L 648,1251 L 648,1250 L 651,1247 L 651,1246 L 653,1244 L 653,1243 L 656,1240 L 656,1238 Z" fill="orange" /></g><g id="layer25"><path d="M 395,1238 L 395,1240 L 403,1248 L 404,1248 L 407,1251 L 408,1251 L 410,1253 L 411,1253 L 412,1254 L 413,1254 L 414,1255 L 415,1255 L 416,1256 L 417,1256 L 418,1257 L 420,1257 L 421,1258 L 422,1258 L 423,1259 L 425,1259 L 426,1260 L 427,1260 L 428,1261 L 431,1261 L 432,1262 L 436,1262 L 437,1263 L 443,1263 L 444,1264 L 466,1264 L 467,1263 L 475,1263 L 476,1262 L 482,1262 L 483,1261 L 489,1261 L 490,1260 L 494,1260 L 495,1259 L 497,1261 L 497,1315 L 498,1316 L 498,1317 L 496,1319 L 495,1318 L 494,1318 L 492,1316 L 491,1316 L 490,1315 L 489,1315 L 488,1314 L 487,1314 L 485,1312 L 483,1312 L 481,1310 L 479,1310 L 478,1309 L 476,1309 L 475,1308 L 472,1308 L 471,1307 L 467,1307 L 466,1306 L 447,1306 L 446,1307 L 442,1307 L 441,1308 L 439,1308 L 438,1309 L 436,1309 L 435,1310 L 433,1310 L 431,1312 L 430,1312 L 429,1313 L 428,1313 L 427,1314 L 426,1314 L 424,1316 L 423,1316 L 417,1322 L 416,1322 L 415,1323 L 415,1324 L 412,1327 L 412,1328 L 411,1329 L 411,1330 L 409,1332 L 409,1333 L 408,1334 L 408,1336 L 407,1337 L 407,1340 L 406,1341 L 406,1358 L 407,1359 L 407,1362 L 408,1363 L 408,1365 L 410,1367 L 410,1368 L 411,1369 L 411,1370 L 413,1372 L 413,1373 L 416,1376 L 416,1377 L 418,1379 L 419,1379 L 423,1383 L 424,1383 L 426,1385 L 427,1385 L 428,1386 L 429,1386 L 431,1388 L 432,1388 L 435,1391 L 436,1391 L 438,1393 L 439,1393 L 441,1395 L 442,1395 L 445,1398 L 446,1398 L 447,1399 L 448,1399 L 450,1401 L 451,1401 L 453,1403 L 454,1403 L 456,1405 L 457,1405 L 460,1408 L 461,1408 L 463,1410 L 464,1410 L 465,1411 L 466,1411 L 468,1413 L 469,1413 L 471,1415 L 472,1415 L 475,1418 L 476,1418 L 478,1420 L 479,1420 L 481,1422 L 482,1422 L 484,1424 L 485,1424 L 488,1427 L 489,1427 L 490,1428 L 491,1428 L 494,1431 L 495,1431 L 496,1432 L 497,1432 L 499,1434 L 500,1434 L 503,1437 L 504,1437 L 506,1439 L 507,1439 L 509,1441 L 510,1441 L 512,1443 L 513,1443 L 515,1445 L 516,1445 L 518,1447 L 519,1447 L 521,1449 L 522,1449 L 524,1451 L 525,1451 L 527,1453 L 528,1453 L 531,1456 L 532,1456 L 533,1457 L 534,1457 L 537,1460 L 538,1460 L 539,1461 L 540,1461 L 543,1464 L 544,1464 L 545,1465 L 546,1465 L 547,1466 L 548,1466 L 549,1467 L 550,1466 L 551,1466 L 553,1464 L 553,1462 L 552,1461 L 552,1460 L 551,1459 L 550,1459 L 545,1454 L 544,1454 L 543,1453 L 542,1453 L 540,1451 L 539,1451 L 535,1447 L 534,1447 L 533,1446 L 532,1446 L 530,1444 L 529,1444 L 526,1441 L 526,1352 L 527,1351 L 527,1347 L 526,1346 L 526,1341 L 527,1340 L 527,1336 L 526,1335 L 526,1320 L 527,1319 L 527,1316 L 526,1315 L 526,1263 L 527,1262 L 526,1261 L 527,1260 L 526,1259 L 528,1257 L 532,1257 L 533,1256 L 537,1256 L 538,1255 L 542,1255 L 543,1256 L 543,1435 L 545,1437 L 546,1437 L 547,1438 L 548,1438 L 550,1440 L 551,1440 L 553,1442 L 554,1442 L 556,1444 L 557,1444 L 558,1445 L 559,1445 L 561,1447 L 562,1447 L 564,1449 L 565,1449 L 566,1450 L 567,1450 L 570,1453 L 571,1453 L 572,1454 L 573,1454 L 575,1456 L 576,1456 L 578,1458 L 579,1458 L 580,1459 L 581,1459 L 583,1461 L 584,1461 L 586,1463 L 587,1463 L 589,1465 L 590,1465 L 592,1467 L 593,1467 L 594,1468 L 596,1468 L 598,1466 L 598,1465 L 599,1464 L 599,1461 L 598,1460 L 598,1459 L 597,1458 L 596,1458 L 593,1455 L 592,1455 L 591,1454 L 590,1454 L 588,1452 L 587,1452 L 585,1450 L 584,1450 L 582,1448 L 581,1448 L 579,1446 L 578,1446 L 575,1443 L 574,1443 L 572,1441 L 572,1238 Z" fill="orange" /></g><g id="layer26"><path d="M 249,1238 L 249,1240 L 258,1249 L 260,1249 L 263,1252 L 263,1253 L 262,1254 L 260,1254 L 259,1255 L 257,1255 L 256,1256 L 255,1256 L 254,1257 L 253,1257 L 251,1259 L 250,1259 L 247,1262 L 246,1262 L 246,1263 L 245,1264 L 245,1265 L 244,1266 L 244,1279 L 245,1280 L 245,1281 L 249,1285 L 251,1285 L 252,1286 L 255,1286 L 256,1287 L 262,1287 L 263,1286 L 267,1286 L 268,1285 L 270,1285 L 271,1284 L 272,1284 L 277,1279 L 277,1278 L 278,1277 L 278,1274 L 279,1273 L 279,1270 L 278,1269 L 278,1266 L 274,1262 L 272,1262 L 271,1261 L 265,1261 L 264,1260 L 264,1259 L 266,1257 L 267,1257 L 268,1256 L 271,1256 L 272,1257 L 273,1257 L 274,1258 L 275,1258 L 276,1259 L 277,1259 L 278,1260 L 279,1260 L 280,1261 L 282,1261 L 283,1262 L 286,1262 L 287,1263 L 292,1263 L 293,1264 L 302,1264 L 303,1265 L 306,1265 L 307,1264 L 327,1264 L 328,1263 L 335,1263 L 336,1262 L 343,1262 L 344,1261 L 349,1261 L 350,1260 L 355,1260 L 356,1259 L 361,1259 L 362,1260 L 362,1317 L 361,1318 L 360,1318 L 358,1316 L 357,1316 L 356,1315 L 355,1315 L 354,1314 L 353,1314 L 352,1313 L 351,1313 L 350,1312 L 349,1312 L 347,1310 L 346,1310 L 345,1309 L 343,1309 L 342,1308 L 341,1308 L 340,1307 L 339,1307 L 338,1306 L 336,1306 L 335,1305 L 334,1305 L 333,1304 L 332,1304 L 331,1303 L 330,1303 L 329,1302 L 327,1302 L 326,1301 L 325,1301 L 324,1300 L 322,1300 L 321,1299 L 319,1299 L 318,1298 L 315,1298 L 314,1297 L 312,1297 L 311,1296 L 308,1296 L 307,1295 L 304,1295 L 303,1294 L 298,1294 L 297,1293 L 283,1293 L 282,1294 L 281,1294 L 280,1295 L 278,1295 L 277,1296 L 276,1296 L 275,1297 L 274,1297 L 273,1298 L 272,1298 L 271,1299 L 270,1299 L 268,1301 L 267,1301 L 260,1308 L 260,1309 L 259,1310 L 259,1311 L 258,1312 L 258,1313 L 257,1314 L 257,1315 L 256,1316 L 256,1319 L 255,1320 L 255,1337 L 256,1338 L 256,1341 L 257,1342 L 257,1343 L 258,1344 L 258,1345 L 261,1348 L 261,1349 L 269,1357 L 270,1357 L 273,1360 L 274,1360 L 276,1362 L 277,1362 L 278,1363 L 279,1363 L 280,1364 L 281,1364 L 282,1365 L 284,1365 L 286,1367 L 289,1367 L 290,1368 L 292,1368 L 293,1369 L 297,1369 L 298,1370 L 308,1370 L 309,1369 L 313,1369 L 314,1368 L 315,1368 L 316,1367 L 318,1367 L 319,1366 L 320,1366 L 321,1365 L 322,1365 L 323,1364 L 324,1364 L 327,1361 L 328,1361 L 329,1360 L 329,1359 L 332,1356 L 332,1355 L 333,1354 L 333,1353 L 334,1352 L 334,1350 L 335,1349 L 335,1337 L 334,1336 L 334,1335 L 333,1334 L 333,1333 L 332,1332 L 332,1331 L 331,1330 L 331,1329 L 329,1327 L 329,1326 L 328,1326 L 321,1319 L 321,1318 L 319,1316 L 319,1313 L 321,1311 L 323,1311 L 324,1310 L 325,1310 L 326,1311 L 329,1311 L 330,1312 L 331,1312 L 333,1314 L 334,1314 L 335,1315 L 336,1315 L 338,1317 L 340,1317 L 342,1319 L 343,1319 L 344,1320 L 345,1320 L 347,1322 L 348,1322 L 349,1323 L 350,1323 L 351,1324 L 352,1324 L 353,1325 L 354,1325 L 356,1327 L 357,1327 L 358,1328 L 359,1328 L 362,1331 L 362,1432 L 363,1433 L 364,1433 L 365,1434 L 366,1434 L 369,1437 L 370,1437 L 373,1440 L 374,1440 L 375,1441 L 376,1441 L 379,1444 L 380,1444 L 382,1446 L 383,1446 L 385,1448 L 386,1448 L 387,1449 L 388,1449 L 391,1452 L 392,1452 L 394,1454 L 395,1454 L 397,1456 L 398,1456 L 401,1459 L 402,1459 L 404,1461 L 405,1461 L 407,1463 L 408,1463 L 410,1465 L 411,1465 L 412,1466 L 413,1466 L 414,1467 L 415,1466 L 416,1466 L 418,1464 L 418,1459 L 416,1457 L 415,1457 L 413,1455 L 412,1455 L 411,1454 L 410,1454 L 407,1451 L 406,1451 L 404,1449 L 403,1449 L 401,1447 L 400,1447 L 399,1446 L 398,1446 L 396,1444 L 395,1444 L 392,1441 L 392,1238 Z" fill="orange" /></g><g id="layer27"><path d="M 929,1186 L 928,1187 L 925,1187 L 924,1188 L 922,1188 L 920,1190 L 918,1190 L 914,1194 L 913,1194 L 913,1195 L 911,1197 L 911,1198 L 910,1199 L 910,1200 L 909,1201 L 909,1203 L 908,1204 L 908,1216 L 909,1217 L 909,1219 L 910,1220 L 910,1222 L 911,1223 L 911,1224 L 912,1225 L 912,1226 L 920,1234 L 921,1234 L 924,1237 L 925,1237 L 926,1238 L 927,1238 L 928,1239 L 928,1431 L 932,1435 L 933,1435 L 936,1438 L 937,1438 L 938,1439 L 939,1439 L 941,1441 L 942,1441 L 944,1443 L 945,1443 L 948,1446 L 949,1446 L 950,1447 L 951,1447 L 954,1450 L 955,1450 L 957,1452 L 958,1452 L 960,1454 L 961,1454 L 963,1456 L 964,1456 L 966,1458 L 967,1458 L 969,1460 L 970,1460 L 972,1462 L 973,1462 L 976,1465 L 977,1465 L 978,1466 L 979,1466 L 980,1467 L 983,1467 L 984,1466 L 985,1466 L 986,1465 L 986,1459 L 984,1457 L 983,1457 L 981,1455 L 980,1455 L 978,1453 L 977,1453 L 976,1452 L 975,1452 L 973,1450 L 972,1450 L 970,1448 L 969,1448 L 967,1446 L 966,1446 L 965,1445 L 964,1445 L 963,1444 L 962,1444 L 960,1442 L 960,1436 L 959,1435 L 959,1239 L 945,1239 L 944,1238 L 944,1237 L 943,1236 L 943,1235 L 942,1234 L 942,1233 L 941,1232 L 941,1226 L 942,1225 L 942,1224 L 943,1223 L 943,1222 L 945,1220 L 946,1220 L 947,1219 L 949,1219 L 950,1218 L 957,1218 L 958,1219 L 960,1219 L 961,1220 L 962,1220 L 964,1222 L 965,1222 L 980,1237 L 979,1238 L 965,1238 L 964,1239 L 966,1241 L 966,1242 L 968,1244 L 968,1245 L 969,1245 L 970,1246 L 970,1247 L 975,1252 L 976,1252 L 978,1254 L 979,1254 L 982,1257 L 984,1257 L 985,1258 L 986,1258 L 987,1259 L 988,1259 L 989,1260 L 990,1260 L 991,1261 L 994,1261 L 995,1262 L 997,1262 L 998,1263 L 1003,1263 L 1004,1264 L 1011,1264 L 1012,1265 L 1024,1265 L 1025,1266 L 1041,1266 L 1042,1265 L 1055,1265 L 1056,1264 L 1062,1264 L 1063,1263 L 1069,1263 L 1070,1262 L 1074,1262 L 1075,1261 L 1080,1261 L 1081,1262 L 1080,1263 L 1080,1313 L 1079,1314 L 1076,1311 L 1075,1311 L 1073,1309 L 1072,1309 L 1069,1306 L 1068,1306 L 1067,1305 L 1066,1305 L 1064,1303 L 1063,1303 L 1061,1301 L 1060,1301 L 1058,1299 L 1057,1299 L 1056,1298 L 1055,1298 L 1053,1296 L 1052,1296 L 1051,1295 L 1050,1295 L 1049,1294 L 1048,1294 L 1047,1293 L 1046,1293 L 1045,1292 L 1044,1292 L 1043,1291 L 1042,1291 L 1041,1290 L 1040,1290 L 1039,1289 L 1038,1289 L 1037,1288 L 1035,1288 L 1034,1287 L 1033,1287 L 1032,1286 L 1022,1286 L 1021,1287 L 1018,1287 L 1017,1288 L 1016,1288 L 1014,1290 L 1013,1290 L 1011,1292 L 1010,1292 L 1009,1293 L 1009,1294 L 1006,1297 L 1006,1301 L 1005,1302 L 1005,1307 L 1006,1308 L 1006,1311 L 1007,1312 L 1007,1314 L 1008,1315 L 1008,1316 L 1010,1318 L 1010,1319 L 1013,1322 L 1013,1323 L 1017,1327 L 1014,1330 L 1013,1330 L 1012,1331 L 1011,1331 L 1009,1333 L 1008,1333 L 1001,1340 L 1001,1341 L 1000,1342 L 1000,1343 L 999,1344 L 999,1345 L 998,1346 L 998,1348 L 997,1349 L 997,1350 L 996,1351 L 996,1354 L 995,1355 L 995,1376 L 996,1377 L 996,1378 L 997,1379 L 998,1379 L 999,1380 L 1000,1380 L 1003,1383 L 1004,1383 L 1006,1385 L 1007,1385 L 1009,1387 L 1010,1387 L 1011,1388 L 1012,1388 L 1014,1390 L 1015,1390 L 1017,1392 L 1018,1392 L 1020,1394 L 1021,1394 L 1023,1396 L 1024,1396 L 1025,1397 L 1025,1398 L 1026,1398 L 1027,1399 L 1028,1399 L 1030,1401 L 1031,1401 L 1032,1402 L 1033,1402 L 1034,1403 L 1035,1403 L 1038,1406 L 1039,1406 L 1040,1407 L 1041,1407 L 1043,1409 L 1044,1409 L 1047,1412 L 1048,1412 L 1049,1413 L 1050,1413 L 1052,1415 L 1053,1415 L 1055,1417 L 1056,1417 L 1058,1419 L 1059,1419 L 1061,1421 L 1062,1421 L 1064,1423 L 1065,1423 L 1067,1425 L 1068,1425 L 1069,1426 L 1070,1426 L 1073,1429 L 1074,1429 L 1076,1431 L 1077,1431 L 1078,1432 L 1079,1432 L 1081,1434 L 1082,1434 L 1084,1436 L 1085,1436 L 1087,1438 L 1088,1438 L 1090,1440 L 1091,1440 L 1093,1442 L 1094,1442 L 1097,1445 L 1098,1445 L 1100,1447 L 1101,1447 L 1102,1448 L 1103,1448 L 1104,1449 L 1105,1449 L 1108,1452 L 1109,1452 L 1111,1454 L 1112,1454 L 1113,1455 L 1114,1455 L 1117,1458 L 1118,1458 L 1120,1460 L 1121,1460 L 1122,1461 L 1123,1461 L 1126,1464 L 1127,1464 L 1128,1465 L 1129,1465 L 1131,1467 L 1133,1467 L 1134,1466 L 1136,1466 L 1137,1465 L 1137,1464 L 1138,1463 L 1138,1461 L 1137,1460 L 1137,1459 L 1136,1458 L 1135,1458 L 1133,1456 L 1132,1456 L 1129,1453 L 1128,1453 L 1127,1452 L 1126,1452 L 1124,1450 L 1123,1450 L 1121,1448 L 1120,1448 L 1119,1447 L 1118,1447 L 1116,1445 L 1115,1445 L 1114,1444 L 1113,1444 L 1111,1442 L 1111,1441 L 1110,1440 L 1110,1238 L 1000,1238 L 994,1232 L 994,1231 L 991,1228 L 990,1228 L 989,1227 L 989,1226 L 980,1217 L 980,1216 L 979,1216 L 977,1214 L 977,1213 L 974,1210 L 974,1209 L 973,1209 L 956,1192 L 955,1192 L 953,1190 L 951,1190 L 950,1189 L 949,1189 L 948,1188 L 946,1188 L 945,1187 L 941,1187 L 940,1186 Z" fill="orange" /></g><g id="layer28"><path d="M 1253,884 L 1252,885 L 1251,885 L 1252,886 L 1252,919 L 1251,920 L 1251,972 L 1283,972 L 1284,973 L 1330,973 L 1331,974 L 1333,974 L 1334,973 L 1335,973 L 1336,974 L 1340,974 L 1341,973 L 1340,972 L 1340,909 L 1339,908 L 1339,887 L 1338,886 L 1298,886 L 1297,885 L 1296,885 L 1295,886 L 1294,886 L 1293,885 L 1255,885 L 1254,884 Z" fill="orange" /></g><g id="layer29"><path d="M 703,884 L 702,885 L 702,963 L 701,964 L 701,972 L 718,972 L 719,973 L 720,972 L 721,973 L 775,973 L 776,974 L 790,974 L 791,973 L 791,945 L 790,944 L 790,899 L 789,898 L 789,887 L 788,886 L 748,886 L 747,885 L 704,885 Z" fill="orange" /></g><g id="layer30"><path d="M 832,789 L 831,790 L 831,1021 L 830,1022 L 640,1022 L 639,1023 L 606,1023 L 605,1022 L 604,1023 L 601,1023 L 621,1043 L 620,1044 L 621,1043 L 647,1069 L 647,1070 L 648,1070 L 649,1071 L 649,1072 L 650,1072 L 652,1074 L 652,1075 L 658,1081 L 659,1081 L 660,1082 L 660,1083 L 664,1087 L 665,1087 L 667,1089 L 667,1090 L 707,1130 L 707,1131 L 708,1131 L 710,1133 L 710,1134 L 711,1134 L 713,1136 L 713,1137 L 714,1138 L 715,1138 L 716,1139 L 716,1140 L 717,1140 L 718,1141 L 718,1142 L 719,1142 L 721,1144 L 721,1145 L 722,1146 L 723,1146 L 724,1147 L 724,1148 L 725,1148 L 730,1153 L 730,1154 L 780,1204 L 780,1205 L 781,1205 L 782,1206 L 782,1207 L 855,1207 L 852,1204 L 852,1203 L 851,1202 L 850,1202 L 847,1199 L 847,1198 L 829,1180 L 830,1179 L 829,1180 L 817,1168 L 817,1167 L 816,1167 L 815,1166 L 815,1165 L 814,1164 L 813,1164 L 812,1163 L 812,1162 L 793,1143 L 793,1142 L 792,1142 L 790,1140 L 790,1139 L 789,1139 L 786,1136 L 786,1135 L 783,1132 L 782,1132 L 780,1130 L 780,1129 L 778,1127 L 777,1127 L 776,1126 L 776,1125 L 754,1103 L 754,1102 L 751,1099 L 750,1099 L 749,1098 L 750,1097 L 749,1098 L 748,1097 L 748,1096 L 747,1096 L 746,1095 L 747,1094 L 746,1095 L 745,1094 L 745,1093 L 729,1077 L 730,1076 L 731,1076 L 732,1075 L 733,1076 L 880,1076 L 881,1075 L 882,1076 L 883,1075 L 885,1075 L 886,1074 L 886,920 L 887,919 L 890,922 L 890,923 L 891,923 L 917,949 L 918,949 L 921,952 L 921,953 L 922,953 L 924,955 L 924,956 L 925,956 L 963,994 L 964,994 L 967,997 L 967,998 L 968,999 L 969,999 L 970,1000 L 970,1001 L 971,1001 L 972,1002 L 972,1003 L 973,1003 L 974,1004 L 974,1005 L 975,1005 L 976,1006 L 976,1007 L 977,1008 L 978,1008 L 990,1020 L 990,1021 L 991,1021 L 1016,1046 L 1018,1046 L 1024,1040 L 1025,1040 L 1027,1038 L 1027,1037 L 1028,1036 L 1029,1036 L 1045,1020 L 1046,1020 L 1046,1019 L 1048,1017 L 1049,1017 L 1049,1016 L 1055,1010 L 1056,1010 L 1061,1005 L 1061,1004 L 1062,1003 L 1063,1003 L 1086,980 L 1087,980 L 1135,932 L 1136,932 L 1149,919 L 1150,920 L 1150,1074 L 1151,1075 L 1305,1075 L 1306,1076 L 1287,1095 L 1286,1095 L 1286,1096 L 1264,1118 L 1264,1119 L 1263,1120 L 1262,1120 L 1262,1121 L 1217,1166 L 1217,1167 L 1213,1171 L 1212,1171 L 1212,1172 L 1180,1204 L 1180,1205 L 1179,1206 L 1178,1206 L 1178,1207 L 1247,1207 L 1248,1208 L 1249,1208 L 1256,1201 L 1257,1201 L 1257,1200 L 1264,1193 L 1265,1193 L 1265,1192 L 1272,1185 L 1273,1185 L 1273,1184 L 1280,1177 L 1281,1177 L 1281,1176 L 1288,1169 L 1289,1169 L 1289,1168 L 1296,1161 L 1297,1161 L 1297,1160 L 1304,1153 L 1305,1153 L 1305,1152 L 1312,1145 L 1313,1145 L 1313,1144 L 1320,1137 L 1321,1137 L 1321,1136 L 1328,1129 L 1329,1129 L 1329,1128 L 1336,1121 L 1337,1121 L 1337,1120 L 1344,1113 L 1345,1113 L 1345,1112 L 1352,1105 L 1353,1105 L 1353,1104 L 1360,1097 L 1361,1097 L 1361,1096 L 1368,1089 L 1369,1089 L 1369,1088 L 1376,1081 L 1377,1081 L 1378,1080 L 1378,1079 L 1384,1073 L 1385,1073 L 1385,1072 L 1392,1065 L 1393,1065 L 1393,1064 L 1400,1057 L 1401,1057 L 1401,1056 L 1408,1049 L 1409,1049 L 1409,1048 L 1424,1033 L 1425,1033 L 1425,1032 L 1435,1022 L 1435,1021 L 1434,1020 L 1406,1020 L 1405,1021 L 1404,1020 L 1403,1021 L 1402,1020 L 1401,1021 L 1400,1020 L 1399,1021 L 1371,1021 L 1370,1020 L 1369,1021 L 1368,1020 L 1288,1020 L 1287,1021 L 1205,1021 L 1203,1019 L 1203,792 L 1202,792 L 1171,823 L 1170,823 L 1170,824 L 1161,833 L 1160,833 L 1160,834 L 1157,837 L 1156,837 L 1154,839 L 1154,840 L 1153,841 L 1152,841 L 1152,842 L 1150,844 L 1149,844 L 1094,899 L 1093,899 L 1092,900 L 1092,901 L 1091,902 L 1090,902 L 1089,903 L 1089,904 L 1088,905 L 1087,905 L 1031,961 L 1030,961 L 1030,962 L 1028,964 L 1027,964 L 1025,966 L 1025,967 L 1024,968 L 1023,968 L 1019,972 L 1019,973 L 1018,974 L 1017,974 L 865,822 L 865,821 L 864,821 L 861,818 L 861,817 L 860,817 L 857,814 L 857,813 L 856,813 L 834,791 L 834,790 L 833,790 Z" fill="orange" /></g><g id="layer31"><path d="M 1016,786 L 984,818 L 983,818 L 983,819 L 979,823 L 978,823 L 976,825 L 976,826 L 975,827 L 974,827 L 974,828 L 973,829 L 972,829 L 954,847 L 954,848 L 958,852 L 958,853 L 959,853 L 961,855 L 961,856 L 981,876 L 981,877 L 982,877 L 988,883 L 988,884 L 990,886 L 991,886 L 993,888 L 993,889 L 1008,904 L 1008,905 L 1010,907 L 1011,907 L 1013,909 L 1013,910 L 1014,911 L 1015,911 L 1016,912 L 1017,912 L 1019,910 L 1019,909 L 1039,889 L 1039,888 L 1062,865 L 1062,864 L 1076,850 L 1076,848 L 1075,848 L 1073,846 L 1073,845 L 1052,824 L 1052,823 L 1051,823 L 1049,821 L 1049,820 L 1042,813 L 1042,812 L 1041,812 L 1025,796 L 1025,795 Z" fill="orange" /></g><g id="layer32"><path d="M 993,624 L 992,625 L 944,625 L 943,626 L 932,626 L 931,627 L 931,628 L 930,629 L 929,629 L 929,630 L 919,640 L 919,641 L 875,685 L 874,685 L 862,697 L 861,697 L 850,708 L 849,708 L 844,713 L 843,713 L 836,720 L 835,720 L 829,726 L 828,726 L 824,730 L 823,730 L 819,734 L 818,734 L 818,735 L 817,736 L 816,736 L 812,740 L 811,740 L 807,744 L 806,744 L 801,749 L 800,749 L 797,752 L 796,752 L 793,755 L 792,755 L 789,758 L 788,758 L 784,762 L 783,762 L 780,765 L 779,765 L 777,767 L 776,767 L 776,768 L 775,769 L 774,769 L 772,771 L 771,771 L 769,773 L 768,773 L 765,776 L 764,776 L 761,779 L 760,779 L 757,782 L 756,782 L 755,783 L 754,783 L 751,786 L 750,786 L 747,789 L 746,789 L 744,791 L 743,791 L 741,793 L 740,793 L 738,795 L 737,795 L 735,797 L 734,797 L 731,800 L 730,800 L 728,802 L 727,802 L 725,804 L 724,804 L 722,806 L 721,806 L 719,808 L 718,808 L 716,810 L 715,810 L 713,812 L 712,812 L 711,813 L 710,813 L 708,815 L 707,815 L 705,817 L 704,817 L 702,819 L 701,819 L 699,821 L 698,821 L 697,822 L 696,822 L 694,824 L 693,824 L 691,826 L 690,826 L 688,828 L 687,828 L 686,829 L 685,829 L 683,831 L 682,831 L 681,832 L 680,832 L 678,834 L 677,834 L 675,836 L 674,836 L 673,837 L 672,837 L 671,838 L 670,838 L 668,840 L 667,840 L 665,842 L 664,842 L 662,844 L 661,844 L 660,845 L 659,845 L 658,846 L 657,846 L 655,848 L 654,848 L 653,849 L 652,849 L 650,851 L 649,851 L 648,852 L 647,852 L 646,853 L 645,853 L 643,855 L 642,855 L 641,856 L 640,856 L 638,858 L 637,858 L 636,859 L 635,859 L 634,860 L 633,860 L 632,861 L 631,861 L 629,863 L 628,863 L 627,864 L 626,864 L 625,865 L 624,865 L 623,866 L 622,866 L 621,867 L 620,867 L 618,869 L 617,869 L 616,870 L 614,870 L 612,872 L 611,872 L 610,873 L 609,873 L 608,874 L 607,874 L 606,875 L 605,875 L 603,877 L 602,877 L 601,878 L 599,878 L 597,880 L 596,880 L 595,881 L 594,881 L 593,882 L 592,882 L 591,883 L 590,883 L 589,884 L 588,884 L 586,886 L 585,886 L 584,887 L 583,887 L 582,888 L 581,888 L 580,889 L 579,889 L 578,890 L 577,890 L 576,891 L 574,891 L 572,893 L 571,893 L 570,894 L 569,894 L 568,895 L 567,895 L 566,896 L 565,896 L 564,897 L 563,897 L 562,898 L 560,898 L 559,899 L 558,899 L 557,900 L 556,900 L 554,902 L 553,902 L 552,903 L 550,903 L 548,905 L 547,905 L 546,906 L 545,906 L 544,907 L 542,907 L 541,908 L 540,908 L 539,909 L 538,909 L 537,910 L 536,910 L 535,911 L 534,911 L 533,912 L 532,912 L 531,913 L 530,913 L 529,914 L 528,914 L 527,915 L 526,915 L 525,916 L 523,916 L 522,917 L 521,917 L 520,918 L 519,918 L 518,919 L 517,919 L 516,920 L 515,920 L 514,921 L 512,921 L 511,922 L 510,922 L 509,923 L 508,923 L 507,924 L 506,924 L 505,925 L 504,925 L 503,926 L 501,926 L 500,927 L 499,927 L 498,928 L 497,928 L 496,929 L 495,929 L 494,930 L 492,930 L 491,931 L 490,931 L 489,932 L 488,932 L 487,933 L 485,933 L 484,934 L 483,934 L 482,935 L 481,935 L 480,936 L 479,936 L 478,937 L 476,937 L 475,938 L 474,938 L 473,939 L 472,939 L 471,940 L 469,940 L 468,941 L 467,941 L 466,942 L 465,942 L 464,943 L 462,943 L 461,944 L 460,944 L 459,945 L 457,945 L 456,946 L 455,946 L 454,947 L 453,947 L 452,948 L 451,948 L 450,949 L 448,949 L 447,950 L 446,950 L 445,951 L 443,951 L 442,952 L 441,952 L 440,953 L 438,953 L 437,954 L 436,954 L 435,955 L 433,955 L 432,956 L 431,956 L 430,957 L 428,957 L 427,958 L 426,958 L 425,959 L 423,959 L 422,960 L 420,960 L 419,961 L 418,961 L 417,962 L 416,962 L 415,963 L 413,963 L 412,964 L 410,964 L 409,965 L 408,965 L 407,966 L 405,966 L 404,967 L 402,967 L 401,968 L 400,968 L 399,969 L 397,969 L 396,970 L 394,970 L 393,971 L 392,971 L 391,972 L 390,972 L 389,973 L 387,973 L 386,974 L 384,974 L 383,975 L 381,975 L 380,976 L 378,976 L 377,977 L 376,977 L 375,978 L 373,978 L 372,979 L 370,979 L 369,980 L 367,980 L 366,981 L 365,981 L 364,982 L 362,982 L 361,983 L 360,983 L 359,984 L 356,984 L 355,985 L 353,985 L 352,986 L 350,986 L 349,987 L 348,987 L 347,988 L 345,988 L 344,989 L 342,989 L 341,990 L 339,990 L 338,991 L 336,991 L 335,992 L 333,992 L 332,993 L 330,993 L 329,994 L 327,994 L 326,995 L 324,995 L 323,996 L 321,996 L 320,997 L 318,997 L 317,998 L 315,998 L 314,999 L 312,999 L 311,1000 L 309,1000 L 308,1001 L 306,1001 L 305,1002 L 303,1002 L 302,1003 L 300,1003 L 299,1004 L 297,1004 L 296,1005 L 294,1005 L 293,1006 L 290,1006 L 289,1007 L 288,1007 L 287,1008 L 284,1008 L 283,1009 L 281,1009 L 280,1010 L 278,1010 L 277,1011 L 274,1011 L 273,1012 L 272,1011 L 272,1010 L 273,1009 L 273,1008 L 274,1007 L 274,1006 L 275,1005 L 275,1004 L 276,1003 L 276,1002 L 270,1002 L 269,1001 L 266,1001 L 265,1000 L 263,1000 L 262,999 L 261,999 L 260,998 L 259,998 L 258,997 L 257,997 L 256,996 L 255,996 L 253,994 L 252,994 L 250,992 L 249,992 L 247,990 L 246,990 L 244,988 L 243,988 L 241,986 L 240,986 L 235,981 L 234,981 L 233,980 L 233,979 L 232,979 L 228,975 L 227,975 L 206,954 L 205,954 L 201,950 L 200,950 L 200,953 L 202,955 L 202,956 L 204,958 L 204,959 L 205,960 L 205,961 L 206,962 L 206,963 L 208,965 L 208,966 L 210,968 L 210,969 L 211,970 L 211,971 L 212,972 L 212,973 L 213,974 L 213,975 L 214,976 L 214,977 L 216,979 L 216,980 L 218,982 L 218,983 L 220,985 L 220,986 L 222,988 L 222,989 L 223,990 L 223,991 L 224,992 L 224,993 L 225,994 L 225,995 L 227,997 L 227,998 L 228,999 L 228,1000 L 230,1002 L 230,1003 L 231,1004 L 231,1005 L 233,1007 L 233,1008 L 234,1009 L 234,1010 L 236,1012 L 236,1013 L 237,1014 L 237,1015 L 238,1016 L 238,1017 L 240,1019 L 240,1021 L 241,1022 L 241,1030 L 242,1031 L 242,1039 L 243,1040 L 243,1044 L 254,1044 L 255,1045 L 256,1045 L 257,1044 L 594,1044 L 594,1043 L 587,1036 L 587,1035 L 585,1033 L 585,1032 L 584,1031 L 584,1030 L 583,1029 L 583,1025 L 582,1024 L 582,1023 L 583,1022 L 582,1021 L 581,1021 L 580,1022 L 321,1022 L 320,1021 L 322,1019 L 325,1019 L 326,1018 L 328,1018 L 329,1017 L 331,1017 L 332,1016 L 334,1016 L 335,1015 L 337,1015 L 338,1014 L 340,1014 L 341,1013 L 343,1013 L 344,1012 L 346,1012 L 347,1011 L 349,1011 L 350,1010 L 351,1010 L 352,1009 L 355,1009 L 356,1008 L 357,1008 L 358,1007 L 360,1007 L 361,1006 L 363,1006 L 364,1005 L 366,1005 L 367,1004 L 368,1004 L 369,1003 L 371,1003 L 372,1002 L 374,1002 L 375,1001 L 377,1001 L 378,1000 L 380,1000 L 381,999 L 382,999 L 383,998 L 385,998 L 386,997 L 388,997 L 389,996 L 390,996 L 391,995 L 393,995 L 394,994 L 396,994 L 397,993 L 399,993 L 400,992 L 401,992 L 402,991 L 404,991 L 405,990 L 406,990 L 407,989 L 409,989 L 410,988 L 412,988 L 413,987 L 414,987 L 415,986 L 417,986 L 418,985 L 419,985 L 420,984 L 422,984 L 423,983 L 425,983 L 426,982 L 427,982 L 428,981 L 430,981 L 431,980 L 433,980 L 434,979 L 435,979 L 436,978 L 438,978 L 439,977 L 440,977 L 441,976 L 443,976 L 444,975 L 445,975 L 446,974 L 447,974 L 448,973 L 450,973 L 451,972 L 452,972 L 453,971 L 455,971 L 456,970 L 457,970 L 458,969 L 459,969 L 460,968 L 462,968 L 463,967 L 464,967 L 465,966 L 467,966 L 468,965 L 469,965 L 470,964 L 471,964 L 472,963 L 474,963 L 475,962 L 476,962 L 477,961 L 479,961 L 480,960 L 481,960 L 482,959 L 484,959 L 485,958 L 486,958 L 487,957 L 488,957 L 489,956 L 490,956 L 491,955 L 493,955 L 494,954 L 495,954 L 496,953 L 497,953 L 498,952 L 499,952 L 500,951 L 502,951 L 503,950 L 504,950 L 505,949 L 506,949 L 507,948 L 508,948 L 509,947 L 511,947 L 512,946 L 513,946 L 514,945 L 515,945 L 516,944 L 517,944 L 518,943 L 519,943 L 520,942 L 522,942 L 523,941 L 524,941 L 525,940 L 526,940 L 527,939 L 529,939 L 530,938 L 531,938 L 532,937 L 533,937 L 534,936 L 535,936 L 536,935 L 537,935 L 538,934 L 539,934 L 540,933 L 541,933 L 542,932 L 543,932 L 544,931 L 545,931 L 546,930 L 548,930 L 549,929 L 550,929 L 551,928 L 552,928 L 553,927 L 554,927 L 555,926 L 556,926 L 557,925 L 558,925 L 559,924 L 561,924 L 562,923 L 563,923 L 565,921 L 567,921 L 568,920 L 569,920 L 570,919 L 571,919 L 572,918 L 573,918 L 574,917 L 575,917 L 576,916 L 577,916 L 578,915 L 579,915 L 581,913 L 583,913 L 585,911 L 586,911 L 587,910 L 588,910 L 589,909 L 590,909 L 591,908 L 592,908 L 593,907 L 594,907 L 595,906 L 596,906 L 597,905 L 598,905 L 600,903 L 602,903 L 603,902 L 604,902 L 605,901 L 606,901 L 607,900 L 608,900 L 609,899 L 610,899 L 612,897 L 613,897 L 614,896 L 615,896 L 616,895 L 617,895 L 618,894 L 619,894 L 620,893 L 621,893 L 622,892 L 623,892 L 624,891 L 625,891 L 627,889 L 628,889 L 629,888 L 630,888 L 631,887 L 632,887 L 633,886 L 634,886 L 635,885 L 636,885 L 637,884 L 638,884 L 640,882 L 641,882 L 642,881 L 643,881 L 645,879 L 646,879 L 647,878 L 648,878 L 649,877 L 650,877 L 652,875 L 653,875 L 654,874 L 655,874 L 656,873 L 657,873 L 659,871 L 660,871 L 661,870 L 662,870 L 664,868 L 665,868 L 666,867 L 667,867 L 668,866 L 669,866 L 671,864 L 672,864 L 673,863 L 674,863 L 676,861 L 677,861 L 678,860 L 679,860 L 681,858 L 682,858 L 683,857 L 684,857 L 686,855 L 687,855 L 688,854 L 689,854 L 691,852 L 692,852 L 693,851 L 694,851 L 696,849 L 697,849 L 699,847 L 700,847 L 701,846 L 702,846 L 704,844 L 705,844 L 706,843 L 707,843 L 709,841 L 710,841 L 712,839 L 713,839 L 715,837 L 716,837 L 717,836 L 718,836 L 720,834 L 721,834 L 723,832 L 724,832 L 726,830 L 727,830 L 729,828 L 730,828 L 732,826 L 733,826 L 735,824 L 736,824 L 738,822 L 739,822 L 741,820 L 742,820 L 744,818 L 745,818 L 747,816 L 748,816 L 750,814 L 751,814 L 754,811 L 755,811 L 757,809 L 758,809 L 760,807 L 761,807 L 764,804 L 765,804 L 768,801 L 769,801 L 770,800 L 771,800 L 775,796 L 776,796 L 778,794 L 779,794 L 783,790 L 784,790 L 786,788 L 787,788 L 789,786 L 790,786 L 794,782 L 795,782 L 797,780 L 798,780 L 801,777 L 802,777 L 806,773 L 807,773 L 811,769 L 812,769 L 815,766 L 816,766 L 821,761 L 822,761 L 826,757 L 827,757 L 832,752 L 833,752 L 839,746 L 840,746 L 844,742 L 845,742 L 850,737 L 851,737 L 858,730 L 859,730 L 866,723 L 867,723 L 869,721 L 869,720 L 870,719 L 871,719 L 877,713 L 878,713 L 878,712 L 879,711 L 880,711 L 888,703 L 889,703 L 889,702 L 890,701 L 891,701 L 895,697 L 895,696 L 897,694 L 898,694 L 903,689 L 903,688 L 904,687 L 905,687 L 905,686 L 906,685 L 907,685 L 909,683 L 909,682 L 912,679 L 913,679 L 917,675 L 917,674 L 936,655 L 936,654 L 937,653 L 938,653 L 938,652 L 942,648 L 979,648 L 980,647 L 1055,647 L 1056,648 L 1100,648 L 1119,667 L 1119,668 L 1146,695 L 1147,695 L 1149,697 L 1149,698 L 1150,698 L 1166,714 L 1167,714 L 1169,716 L 1169,717 L 1170,717 L 1177,724 L 1178,724 L 1184,730 L 1185,730 L 1192,737 L 1193,737 L 1198,742 L 1199,742 L 1206,749 L 1207,749 L 1212,754 L 1213,754 L 1217,758 L 1218,758 L 1222,762 L 1223,762 L 1226,765 L 1227,765 L 1231,769 L 1232,769 L 1236,773 L 1237,773 L 1241,777 L 1242,777 L 1246,781 L 1247,781 L 1249,783 L 1250,783 L 1254,787 L 1255,787 L 1257,789 L 1258,789 L 1261,792 L 1262,792 L 1264,794 L 1265,794 L 1268,797 L 1269,797 L 1272,800 L 1273,800 L 1275,802 L 1276,802 L 1279,805 L 1280,805 L 1283,808 L 1284,808 L 1286,810 L 1287,810 L 1289,812 L 1290,812 L 1292,814 L 1293,814 L 1295,816 L 1296,816 L 1298,818 L 1299,818 L 1302,821 L 1303,821 L 1304,822 L 1305,822 L 1308,825 L 1309,825 L 1310,826 L 1311,826 L 1314,829 L 1315,829 L 1317,831 L 1318,831 L 1319,832 L 1320,832 L 1322,834 L 1323,834 L 1325,836 L 1326,836 L 1328,838 L 1329,838 L 1331,840 L 1332,840 L 1334,842 L 1335,842 L 1336,843 L 1337,843 L 1339,845 L 1340,845 L 1342,847 L 1343,847 L 1344,848 L 1345,848 L 1347,850 L 1348,850 L 1350,852 L 1351,852 L 1352,853 L 1353,853 L 1354,854 L 1355,854 L 1358,857 L 1360,857 L 1362,859 L 1363,859 L 1365,861 L 1366,861 L 1367,862 L 1368,862 L 1369,863 L 1370,863 L 1372,865 L 1373,865 L 1374,866 L 1375,866 L 1377,868 L 1378,868 L 1379,869 L 1380,869 L 1382,871 L 1383,871 L 1384,872 L 1385,872 L 1386,873 L 1387,873 L 1389,875 L 1390,875 L 1391,876 L 1392,876 L 1393,877 L 1394,877 L 1396,879 L 1397,879 L 1398,880 L 1399,880 L 1400,881 L 1401,881 L 1402,882 L 1403,882 L 1405,884 L 1406,884 L 1407,885 L 1408,885 L 1409,886 L 1410,886 L 1411,887 L 1412,887 L 1413,888 L 1414,888 L 1416,890 L 1417,890 L 1418,891 L 1419,891 L 1420,892 L 1421,892 L 1422,893 L 1423,893 L 1425,895 L 1426,895 L 1427,896 L 1428,896 L 1429,897 L 1430,897 L 1431,898 L 1432,898 L 1433,899 L 1434,899 L 1435,900 L 1436,900 L 1437,901 L 1438,901 L 1439,902 L 1440,902 L 1441,903 L 1442,903 L 1443,904 L 1444,904 L 1446,906 L 1447,906 L 1448,907 L 1450,907 L 1452,909 L 1453,909 L 1454,910 L 1455,910 L 1456,911 L 1457,911 L 1458,912 L 1459,912 L 1460,913 L 1461,913 L 1462,914 L 1463,914 L 1464,915 L 1465,915 L 1466,916 L 1467,916 L 1468,917 L 1469,917 L 1470,918 L 1471,918 L 1472,919 L 1473,919 L 1474,920 L 1475,920 L 1476,921 L 1477,921 L 1478,922 L 1479,922 L 1480,923 L 1482,923 L 1484,925 L 1486,925 L 1487,926 L 1488,926 L 1489,927 L 1490,927 L 1492,929 L 1494,929 L 1495,930 L 1496,930 L 1497,931 L 1498,931 L 1499,932 L 1500,932 L 1501,933 L 1503,933 L 1505,935 L 1507,935 L 1509,937 L 1511,937 L 1512,938 L 1513,938 L 1514,939 L 1515,939 L 1516,940 L 1517,940 L 1518,941 L 1520,941 L 1521,942 L 1522,942 L 1523,943 L 1524,943 L 1525,944 L 1526,944 L 1527,945 L 1528,945 L 1529,946 L 1531,946 L 1532,947 L 1533,947 L 1534,948 L 1535,948 L 1536,949 L 1538,949 L 1539,950 L 1540,950 L 1541,951 L 1542,951 L 1543,952 L 1544,952 L 1545,953 L 1547,953 L 1548,954 L 1549,954 L 1550,955 L 1551,955 L 1552,956 L 1553,956 L 1554,957 L 1556,957 L 1557,958 L 1558,958 L 1559,959 L 1561,959 L 1562,960 L 1563,960 L 1564,961 L 1565,961 L 1566,962 L 1567,962 L 1568,963 L 1570,963 L 1571,964 L 1572,964 L 1573,965 L 1575,965 L 1576,966 L 1577,966 L 1578,967 L 1579,967 L 1580,968 L 1581,968 L 1582,969 L 1584,969 L 1585,970 L 1587,970 L 1588,971 L 1589,971 L 1590,972 L 1592,972 L 1593,973 L 1594,973 L 1595,974 L 1597,974 L 1598,975 L 1599,975 L 1600,976 L 1601,976 L 1602,977 L 1604,977 L 1605,978 L 1607,978 L 1608,979 L 1609,979 L 1610,980 L 1612,980 L 1613,981 L 1614,981 L 1615,982 L 1617,982 L 1618,983 L 1619,983 L 1620,984 L 1621,984 L 1622,985 L 1625,985 L 1626,986 L 1627,986 L 1628,987 L 1630,987 L 1631,988 L 1632,988 L 1633,989 L 1635,989 L 1636,990 L 1637,990 L 1638,991 L 1640,991 L 1641,992 L 1643,992 L 1644,993 L 1646,993 L 1647,994 L 1649,994 L 1650,995 L 1651,995 L 1652,996 L 1654,996 L 1655,997 L 1657,997 L 1658,998 L 1659,998 L 1660,999 L 1661,999 L 1662,1000 L 1664,1000 L 1665,1001 L 1667,1001 L 1668,1002 L 1670,1002 L 1671,1003 L 1673,1003 L 1674,1004 L 1676,1004 L 1677,1005 L 1679,1005 L 1680,1006 L 1681,1006 L 1682,1007 L 1684,1007 L 1685,1008 L 1687,1008 L 1688,1009 L 1690,1009 L 1691,1010 L 1693,1010 L 1694,1011 L 1696,1011 L 1697,1012 L 1699,1012 L 1700,1013 L 1701,1013 L 1702,1014 L 1704,1014 L 1705,1015 L 1708,1015 L 1709,1016 L 1710,1016 L 1711,1017 L 1714,1017 L 1715,1018 L 1717,1018 L 1718,1019 L 1720,1019 L 1721,1020 L 1722,1020 L 1723,1021 L 1722,1022 L 1622,1022 L 1621,1021 L 1455,1021 L 1455,1024 L 1454,1025 L 1454,1028 L 1453,1029 L 1453,1030 L 1452,1031 L 1452,1032 L 1441,1043 L 1442,1044 L 1446,1044 L 1447,1043 L 1448,1044 L 1575,1044 L 1576,1045 L 1577,1044 L 1582,1044 L 1583,1045 L 1584,1044 L 1784,1044 L 1785,1045 L 1788,1045 L 1789,1044 L 1799,1044 L 1800,1043 L 1800,1036 L 1801,1035 L 1801,1028 L 1802,1027 L 1802,1020 L 1804,1018 L 1804,1016 L 1806,1014 L 1806,1013 L 1807,1012 L 1807,1011 L 1809,1009 L 1809,1008 L 1810,1007 L 1810,1006 L 1811,1005 L 1811,1004 L 1813,1002 L 1813,1001 L 1815,999 L 1815,998 L 1816,997 L 1816,996 L 1818,994 L 1818,993 L 1819,992 L 1819,991 L 1820,990 L 1820,989 L 1822,987 L 1822,986 L 1823,985 L 1823,984 L 1825,982 L 1825,981 L 1826,980 L 1826,979 L 1828,977 L 1828,976 L 1829,975 L 1829,974 L 1831,972 L 1831,971 L 1833,969 L 1833,967 L 1835,965 L 1835,964 L 1836,963 L 1836,962 L 1838,960 L 1838,959 L 1839,958 L 1839,957 L 1841,955 L 1841,954 L 1842,953 L 1842,950 L 1841,950 L 1837,954 L 1837,955 L 1835,957 L 1834,957 L 1834,958 L 1832,960 L 1831,960 L 1817,974 L 1816,974 L 1809,981 L 1808,981 L 1805,984 L 1804,984 L 1804,985 L 1803,986 L 1802,986 L 1800,988 L 1799,988 L 1797,990 L 1796,990 L 1794,992 L 1793,992 L 1791,994 L 1790,994 L 1789,995 L 1788,995 L 1787,996 L 1786,996 L 1785,997 L 1784,997 L 1783,998 L 1782,998 L 1781,999 L 1780,999 L 1779,1000 L 1777,1000 L 1776,1001 L 1774,1001 L 1773,1002 L 1767,1002 L 1767,1004 L 1768,1005 L 1768,1007 L 1770,1009 L 1770,1011 L 1769,1012 L 1768,1011 L 1766,1011 L 1765,1010 L 1762,1010 L 1761,1009 L 1759,1009 L 1758,1008 L 1756,1008 L 1755,1007 L 1753,1007 L 1752,1006 L 1749,1006 L 1748,1005 L 1746,1005 L 1745,1004 L 1743,1004 L 1742,1003 L 1741,1003 L 1740,1002 L 1737,1002 L 1736,1001 L 1734,1001 L 1733,1000 L 1731,1000 L 1730,999 L 1728,999 L 1727,998 L 1725,998 L 1724,997 L 1722,997 L 1720,995 L 1717,995 L 1716,994 L 1713,994 L 1712,993 L 1711,993 L 1710,992 L 1707,992 L 1706,991 L 1704,991 L 1703,990 L 1702,990 L 1701,989 L 1699,989 L 1698,988 L 1696,988 L 1695,987 L 1693,987 L 1692,986 L 1690,986 L 1689,985 L 1687,985 L 1686,984 L 1685,984 L 1684,983 L 1682,983 L 1681,982 L 1679,982 L 1678,981 L 1676,981 L 1675,980 L 1674,980 L 1673,979 L 1671,979 L 1670,978 L 1668,978 L 1667,977 L 1666,977 L 1665,976 L 1662,976 L 1661,975 L 1659,975 L 1658,974 L 1657,974 L 1656,973 L 1654,973 L 1653,972 L 1652,972 L 1651,971 L 1649,971 L 1648,970 L 1647,970 L 1646,969 L 1644,969 L 1643,968 L 1641,968 L 1640,967 L 1639,967 L 1638,966 L 1636,966 L 1635,965 L 1634,965 L 1633,964 L 1631,964 L 1630,963 L 1628,963 L 1627,962 L 1626,962 L 1625,961 L 1623,961 L 1622,960 L 1621,960 L 1620,959 L 1618,959 L 1617,958 L 1616,958 L 1615,957 L 1613,957 L 1612,956 L 1611,956 L 1610,955 L 1608,955 L 1607,954 L 1606,954 L 1605,953 L 1603,953 L 1602,952 L 1600,952 L 1599,951 L 1598,951 L 1597,950 L 1596,950 L 1595,949 L 1594,949 L 1593,948 L 1591,948 L 1590,947 L 1589,947 L 1588,946 L 1586,946 L 1585,945 L 1584,945 L 1583,944 L 1581,944 L 1580,943 L 1579,943 L 1578,942 L 1577,942 L 1576,941 L 1575,941 L 1574,940 L 1573,940 L 1572,939 L 1570,939 L 1569,938 L 1567,938 L 1566,937 L 1565,937 L 1564,936 L 1562,936 L 1561,935 L 1560,935 L 1559,934 L 1558,934 L 1557,933 L 1556,933 L 1555,932 L 1554,932 L 1553,931 L 1552,931 L 1551,930 L 1549,930 L 1548,929 L 1547,929 L 1546,928 L 1544,928 L 1543,927 L 1542,927 L 1541,926 L 1540,926 L 1539,925 L 1538,925 L 1537,924 L 1536,924 L 1535,923 L 1534,923 L 1533,922 L 1531,922 L 1530,921 L 1529,921 L 1528,920 L 1527,920 L 1526,919 L 1525,919 L 1524,918 L 1522,918 L 1521,917 L 1520,917 L 1519,916 L 1518,916 L 1517,915 L 1516,915 L 1515,914 L 1514,914 L 1513,913 L 1512,913 L 1511,912 L 1510,912 L 1509,911 L 1508,911 L 1507,910 L 1506,910 L 1505,909 L 1504,909 L 1503,908 L 1501,908 L 1500,907 L 1499,907 L 1498,906 L 1497,906 L 1496,905 L 1495,905 L 1494,904 L 1493,904 L 1492,903 L 1491,903 L 1490,902 L 1489,902 L 1488,901 L 1487,901 L 1486,900 L 1485,900 L 1484,899 L 1483,899 L 1482,898 L 1480,898 L 1478,896 L 1476,896 L 1474,894 L 1473,894 L 1472,893 L 1471,893 L 1470,892 L 1469,892 L 1468,891 L 1467,891 L 1466,890 L 1465,890 L 1464,889 L 1463,889 L 1462,888 L 1461,888 L 1460,887 L 1459,887 L 1458,886 L 1457,886 L 1456,885 L 1455,885 L 1454,884 L 1453,884 L 1451,882 L 1450,882 L 1449,881 L 1448,881 L 1447,880 L 1446,880 L 1445,879 L 1444,879 L 1443,878 L 1442,878 L 1441,877 L 1440,877 L 1439,876 L 1438,876 L 1437,875 L 1436,875 L 1435,874 L 1434,874 L 1432,872 L 1431,872 L 1430,871 L 1429,871 L 1428,870 L 1427,870 L 1425,868 L 1423,868 L 1422,867 L 1421,867 L 1419,865 L 1418,865 L 1417,864 L 1416,864 L 1414,862 L 1413,862 L 1412,861 L 1411,861 L 1410,860 L 1409,860 L 1408,859 L 1407,859 L 1406,858 L 1405,858 L 1403,856 L 1402,856 L 1400,854 L 1398,854 L 1396,852 L 1395,852 L 1394,851 L 1393,851 L 1391,849 L 1390,849 L 1389,848 L 1388,848 L 1386,846 L 1385,846 L 1384,845 L 1383,845 L 1381,843 L 1380,843 L 1379,842 L 1378,842 L 1376,840 L 1375,840 L 1374,839 L 1373,839 L 1371,837 L 1370,837 L 1369,836 L 1368,836 L 1366,834 L 1365,834 L 1364,833 L 1363,833 L 1361,831 L 1360,831 L 1359,830 L 1358,830 L 1356,828 L 1355,828 L 1353,826 L 1352,826 L 1351,825 L 1350,825 L 1348,823 L 1347,823 L 1345,821 L 1344,821 L 1343,820 L 1342,820 L 1340,818 L 1339,818 L 1337,816 L 1336,816 L 1334,814 L 1333,814 L 1331,812 L 1330,812 L 1328,810 L 1327,810 L 1325,808 L 1324,808 L 1322,806 L 1321,806 L 1319,804 L 1318,804 L 1315,801 L 1314,801 L 1313,800 L 1312,800 L 1310,798 L 1309,798 L 1307,796 L 1306,796 L 1303,793 L 1302,793 L 1301,792 L 1300,792 L 1297,789 L 1296,789 L 1294,787 L 1293,787 L 1291,785 L 1290,785 L 1287,782 L 1286,782 L 1284,780 L 1283,780 L 1281,778 L 1280,778 L 1276,774 L 1275,774 L 1273,772 L 1272,772 L 1269,769 L 1268,769 L 1265,766 L 1264,766 L 1261,763 L 1260,763 L 1257,760 L 1256,760 L 1252,756 L 1251,756 L 1247,752 L 1246,752 L 1243,749 L 1242,749 L 1238,745 L 1237,745 L 1233,741 L 1232,741 L 1228,737 L 1227,737 L 1222,732 L 1221,732 L 1217,728 L 1216,728 L 1215,727 L 1215,726 L 1214,726 L 1210,722 L 1209,722 L 1203,716 L 1202,716 L 1195,709 L 1194,709 L 1185,700 L 1184,700 L 1175,691 L 1174,691 L 1161,678 L 1160,678 L 1159,677 L 1159,676 L 1158,676 L 1153,671 L 1153,670 L 1152,670 L 1145,663 L 1145,662 L 1144,662 L 1137,655 L 1137,654 L 1136,653 L 1135,653 L 1131,649 L 1131,648 L 1121,638 L 1121,637 L 1110,626 L 1108,626 L 1107,625 L 1047,625 L 1046,624 Z" fill="orange" /></g><g id="layer33"><path d="M 1019,442 L 1018,443 L 1016,443 L 1015,444 L 1014,444 L 1013,445 L 1012,445 L 1012,446 L 1008,450 L 1008,451 L 1007,452 L 1007,453 L 1006,454 L 1006,455 L 1005,456 L 1005,458 L 1004,459 L 1004,461 L 1003,462 L 1003,465 L 1002,466 L 1002,471 L 1001,472 L 1001,498 L 1002,499 L 1002,503 L 1003,504 L 1003,508 L 1002,509 L 1001,509 L 1000,510 L 999,510 L 998,511 L 997,511 L 995,513 L 994,513 L 993,514 L 992,514 L 987,519 L 987,520 L 985,522 L 985,523 L 984,524 L 984,526 L 983,527 L 983,538 L 984,539 L 984,541 L 985,542 L 985,543 L 988,546 L 988,547 L 989,547 L 993,551 L 994,551 L 996,553 L 997,553 L 998,554 L 999,554 L 1000,555 L 998,557 L 996,557 L 995,558 L 993,558 L 992,559 L 990,559 L 989,560 L 987,560 L 986,561 L 985,561 L 984,562 L 983,562 L 982,563 L 981,563 L 980,564 L 979,564 L 978,565 L 977,565 L 976,566 L 975,566 L 973,568 L 972,568 L 970,570 L 969,570 L 959,580 L 959,581 L 957,583 L 957,584 L 955,586 L 955,587 L 954,588 L 954,589 L 953,590 L 953,591 L 952,592 L 952,593 L 951,594 L 951,595 L 950,596 L 950,598 L 949,599 L 949,601 L 948,602 L 948,605 L 947,606 L 947,609 L 946,610 L 947,611 L 954,611 L 955,610 L 957,610 L 958,611 L 960,611 L 961,610 L 1002,610 L 1003,609 L 1039,609 L 1040,610 L 1090,610 L 1091,611 L 1095,611 L 1096,610 L 1096,609 L 1095,608 L 1095,605 L 1094,604 L 1094,602 L 1093,601 L 1093,598 L 1092,597 L 1092,595 L 1091,594 L 1091,593 L 1090,592 L 1090,591 L 1089,590 L 1089,589 L 1088,588 L 1088,587 L 1087,586 L 1087,585 L 1084,582 L 1084,581 L 1080,577 L 1080,576 L 1077,573 L 1076,573 L 1071,568 L 1070,568 L 1068,566 L 1067,566 L 1066,565 L 1065,565 L 1064,564 L 1063,564 L 1062,563 L 1061,563 L 1060,562 L 1059,562 L 1058,561 L 1057,561 L 1056,560 L 1054,560 L 1053,559 L 1051,559 L 1050,558 L 1048,558 L 1047,557 L 1045,557 L 1044,556 L 1046,554 L 1047,554 L 1048,553 L 1049,553 L 1050,552 L 1051,552 L 1053,550 L 1054,550 L 1059,545 L 1059,544 L 1061,542 L 1061,541 L 1062,540 L 1062,539 L 1063,538 L 1063,535 L 1064,534 L 1064,528 L 1063,527 L 1063,524 L 1061,522 L 1061,521 L 1060,520 L 1060,519 L 1054,513 L 1053,513 L 1051,511 L 1050,511 L 1049,510 L 1047,510 L 1046,509 L 1045,509 L 1044,508 L 1043,508 L 1042,507 L 1041,507 L 1040,506 L 1040,502 L 1041,501 L 1041,495 L 1042,494 L 1042,477 L 1041,476 L 1041,468 L 1040,467 L 1040,463 L 1039,462 L 1039,459 L 1038,458 L 1038,457 L 1037,456 L 1037,454 L 1036,453 L 1036,452 L 1034,450 L 1034,449 L 1032,447 L 1032,446 L 1031,446 L 1029,444 L 1028,444 L 1027,443 L 1025,443 L 1024,442 Z" fill="orange" /></g><g id="layer34"><path d="M 1004,331 L 1003,332 L 992,332 L 991,333 L 986,333 L 985,334 L 980,334 L 979,335 L 974,335 L 973,336 L 968,336 L 967,337 L 964,337 L 963,338 L 959,338 L 958,339 L 955,339 L 954,340 L 952,340 L 951,341 L 948,341 L 947,342 L 944,342 L 943,343 L 941,343 L 940,344 L 938,344 L 937,345 L 935,345 L 934,346 L 932,346 L 931,347 L 929,347 L 928,348 L 926,348 L 925,349 L 924,349 L 923,350 L 921,350 L 920,351 L 919,351 L 918,352 L 916,352 L 915,353 L 914,353 L 913,354 L 912,354 L 911,355 L 910,355 L 909,356 L 908,356 L 907,357 L 906,357 L 905,358 L 903,358 L 902,359 L 901,359 L 900,360 L 899,360 L 898,361 L 897,361 L 896,362 L 895,362 L 894,363 L 893,363 L 891,365 L 890,365 L 889,366 L 888,366 L 887,367 L 886,367 L 885,368 L 884,368 L 882,370 L 881,370 L 880,371 L 879,371 L 877,373 L 876,373 L 874,375 L 873,375 L 872,376 L 871,376 L 868,379 L 867,379 L 865,381 L 864,381 L 862,383 L 861,383 L 858,386 L 857,386 L 853,390 L 852,390 L 849,393 L 848,393 L 842,399 L 841,399 L 830,410 L 829,410 L 829,411 L 815,425 L 815,426 L 811,430 L 811,431 L 807,435 L 807,436 L 804,439 L 804,440 L 801,443 L 801,444 L 798,447 L 798,448 L 796,450 L 796,451 L 795,452 L 795,453 L 792,456 L 792,457 L 791,458 L 791,459 L 789,461 L 789,462 L 788,463 L 788,464 L 786,466 L 786,467 L 785,468 L 785,469 L 783,471 L 783,472 L 782,473 L 782,474 L 781,475 L 781,476 L 780,477 L 780,478 L 778,480 L 778,482 L 776,484 L 776,486 L 775,487 L 775,488 L 774,489 L 774,490 L 773,491 L 773,492 L 772,493 L 772,494 L 771,495 L 771,497 L 770,498 L 770,499 L 769,500 L 769,501 L 768,502 L 768,504 L 767,505 L 767,507 L 766,508 L 766,509 L 765,510 L 765,512 L 764,513 L 764,515 L 763,516 L 763,517 L 762,518 L 762,520 L 761,521 L 761,524 L 760,525 L 760,528 L 759,529 L 759,531 L 758,532 L 758,535 L 757,536 L 757,538 L 756,539 L 756,543 L 755,544 L 755,547 L 754,548 L 754,552 L 753,553 L 753,557 L 752,558 L 752,563 L 751,564 L 751,570 L 750,571 L 750,578 L 749,579 L 749,587 L 748,588 L 748,623 L 749,624 L 749,633 L 750,634 L 750,641 L 751,642 L 751,648 L 752,649 L 752,654 L 753,655 L 753,659 L 754,660 L 754,665 L 755,666 L 755,669 L 756,670 L 756,673 L 757,674 L 757,676 L 758,677 L 758,680 L 759,681 L 759,683 L 760,684 L 760,687 L 761,688 L 761,690 L 762,691 L 762,693 L 763,694 L 763,697 L 764,698 L 764,699 L 765,700 L 765,702 L 766,703 L 766,704 L 767,705 L 767,707 L 768,708 L 768,710 L 769,711 L 769,712 L 770,713 L 770,715 L 771,716 L 771,717 L 772,718 L 772,719 L 773,720 L 773,721 L 774,722 L 774,723 L 775,724 L 775,725 L 776,726 L 776,727 L 777,728 L 777,730 L 778,731 L 778,732 L 780,734 L 780,736 L 782,738 L 783,738 L 784,737 L 785,737 L 786,736 L 787,736 L 792,731 L 793,731 L 796,728 L 797,728 L 803,722 L 804,722 L 807,719 L 808,719 L 812,715 L 813,715 L 819,709 L 820,709 L 824,705 L 825,705 L 825,704 L 827,702 L 828,702 L 832,698 L 833,698 L 842,689 L 843,689 L 852,680 L 853,680 L 853,679 L 857,675 L 858,675 L 880,653 L 881,653 L 881,652 L 884,649 L 885,649 L 885,648 L 900,633 L 900,632 L 915,617 L 915,616 L 921,610 L 922,610 L 924,608 L 925,608 L 926,607 L 928,607 L 928,605 L 929,604 L 929,601 L 930,600 L 930,597 L 931,596 L 931,593 L 932,592 L 932,590 L 933,589 L 933,587 L 934,586 L 934,584 L 936,582 L 936,581 L 937,580 L 937,579 L 938,578 L 938,577 L 939,576 L 939,575 L 942,572 L 942,571 L 945,568 L 945,567 L 956,556 L 957,556 L 960,553 L 961,553 L 963,551 L 964,551 L 965,550 L 966,550 L 966,546 L 965,545 L 965,542 L 964,541 L 964,538 L 963,537 L 963,528 L 964,527 L 964,524 L 965,523 L 965,519 L 966,518 L 966,517 L 967,516 L 967,515 L 969,513 L 969,511 L 972,508 L 972,507 L 973,506 L 974,506 L 974,505 L 979,500 L 980,500 L 982,498 L 982,495 L 981,494 L 982,493 L 982,492 L 981,491 L 981,476 L 982,475 L 982,469 L 983,468 L 983,464 L 984,463 L 984,460 L 985,459 L 985,456 L 986,455 L 986,453 L 987,452 L 987,449 L 988,448 L 988,446 L 990,444 L 990,443 L 992,441 L 992,440 L 994,438 L 994,437 L 1002,429 L 1003,429 L 1005,427 L 1006,427 L 1007,426 L 1009,426 L 1010,425 L 1012,425 L 1013,424 L 1017,424 L 1018,423 L 1028,423 L 1029,424 L 1032,424 L 1033,425 L 1035,425 L 1036,426 L 1037,426 L 1039,428 L 1040,428 L 1048,436 L 1048,437 L 1052,441 L 1052,442 L 1053,443 L 1053,444 L 1054,445 L 1054,446 L 1055,447 L 1055,449 L 1056,450 L 1056,453 L 1057,454 L 1057,456 L 1058,457 L 1058,460 L 1059,461 L 1059,465 L 1060,466 L 1060,471 L 1061,472 L 1061,495 L 1063,497 L 1064,497 L 1068,501 L 1069,501 L 1075,507 L 1075,508 L 1077,510 L 1077,511 L 1078,512 L 1078,513 L 1079,514 L 1079,515 L 1080,516 L 1080,517 L 1081,518 L 1081,521 L 1082,522 L 1082,526 L 1083,527 L 1083,535 L 1082,536 L 1082,540 L 1081,541 L 1081,544 L 1080,545 L 1080,547 L 1079,548 L 1079,550 L 1082,553 L 1083,553 L 1087,557 L 1088,557 L 1096,565 L 1096,566 L 1100,570 L 1100,571 L 1102,573 L 1102,574 L 1104,576 L 1104,577 L 1105,578 L 1105,579 L 1106,580 L 1106,581 L 1108,583 L 1108,585 L 1109,586 L 1109,587 L 1110,588 L 1110,591 L 1111,592 L 1111,593 L 1112,594 L 1112,596 L 1113,597 L 1113,601 L 1114,602 L 1114,606 L 1116,608 L 1118,608 L 1119,609 L 1120,609 L 1132,621 L 1132,622 L 1145,635 L 1145,636 L 1146,636 L 1147,637 L 1147,638 L 1150,641 L 1151,641 L 1152,642 L 1152,643 L 1157,648 L 1158,648 L 1160,650 L 1160,651 L 1161,651 L 1162,652 L 1162,653 L 1163,653 L 1164,654 L 1164,655 L 1165,656 L 1166,656 L 1169,659 L 1169,660 L 1170,660 L 1174,664 L 1174,665 L 1175,665 L 1184,674 L 1185,674 L 1200,689 L 1201,689 L 1210,698 L 1211,698 L 1216,703 L 1217,703 L 1225,711 L 1226,711 L 1230,715 L 1231,715 L 1236,720 L 1237,720 L 1240,723 L 1241,723 L 1247,729 L 1248,729 L 1251,732 L 1252,732 L 1255,735 L 1256,735 L 1258,737 L 1259,737 L 1263,741 L 1264,740 L 1264,739 L 1265,738 L 1265,737 L 1266,736 L 1266,735 L 1267,734 L 1267,733 L 1268,732 L 1268,731 L 1269,730 L 1269,729 L 1270,728 L 1270,727 L 1271,726 L 1271,725 L 1272,724 L 1272,723 L 1273,722 L 1273,720 L 1275,718 L 1275,716 L 1276,715 L 1276,714 L 1277,713 L 1277,711 L 1278,710 L 1278,709 L 1279,708 L 1279,706 L 1280,705 L 1280,703 L 1281,702 L 1281,700 L 1282,699 L 1282,698 L 1283,697 L 1283,695 L 1284,694 L 1284,692 L 1285,691 L 1285,689 L 1286,688 L 1286,686 L 1287,685 L 1287,682 L 1288,681 L 1288,678 L 1289,677 L 1289,674 L 1290,673 L 1290,671 L 1291,670 L 1291,667 L 1292,666 L 1292,662 L 1293,661 L 1293,656 L 1294,655 L 1294,650 L 1295,649 L 1295,644 L 1296,643 L 1296,635 L 1297,634 L 1297,625 L 1298,624 L 1298,589 L 1297,588 L 1297,577 L 1296,576 L 1296,570 L 1295,569 L 1295,563 L 1294,562 L 1294,557 L 1293,556 L 1293,552 L 1292,551 L 1292,547 L 1291,546 L 1291,542 L 1290,541 L 1290,539 L 1289,538 L 1289,534 L 1288,533 L 1288,531 L 1287,530 L 1287,527 L 1286,526 L 1286,524 L 1285,523 L 1285,521 L 1284,520 L 1284,518 L 1283,517 L 1283,515 L 1282,514 L 1282,513 L 1281,512 L 1281,510 L 1280,509 L 1280,507 L 1279,506 L 1279,504 L 1278,503 L 1278,502 L 1277,501 L 1277,499 L 1276,498 L 1276,497 L 1275,496 L 1275,494 L 1273,492 L 1273,491 L 1272,490 L 1272,489 L 1271,488 L 1271,486 L 1270,485 L 1270,484 L 1269,483 L 1269,482 L 1268,481 L 1268,480 L 1267,479 L 1267,478 L 1265,476 L 1265,475 L 1264,474 L 1264,473 L 1263,472 L 1263,471 L 1262,470 L 1262,469 L 1261,468 L 1261,467 L 1260,466 L 1260,465 L 1257,462 L 1257,461 L 1256,460 L 1256,459 L 1254,457 L 1254,456 L 1252,454 L 1252,453 L 1250,451 L 1250,450 L 1248,448 L 1248,447 L 1246,445 L 1246,444 L 1243,441 L 1243,440 L 1239,436 L 1239,435 L 1236,432 L 1236,431 L 1231,426 L 1231,425 L 1217,411 L 1217,410 L 1215,408 L 1214,408 L 1205,399 L 1204,399 L 1199,394 L 1198,394 L 1197,393 L 1197,392 L 1196,392 L 1193,389 L 1192,389 L 1188,385 L 1187,385 L 1184,382 L 1183,382 L 1181,380 L 1180,380 L 1178,378 L 1177,378 L 1175,376 L 1174,376 L 1172,374 L 1171,374 L 1169,372 L 1168,372 L 1167,371 L 1166,371 L 1164,369 L 1163,369 L 1161,367 L 1160,367 L 1159,366 L 1158,366 L 1157,365 L 1156,365 L 1155,364 L 1154,364 L 1152,362 L 1151,362 L 1150,361 L 1148,361 L 1147,360 L 1146,360 L 1145,359 L 1144,359 L 1143,358 L 1142,358 L 1141,357 L 1140,357 L 1139,356 L 1138,356 L 1137,355 L 1136,355 L 1135,354 L 1134,354 L 1133,353 L 1132,353 L 1131,352 L 1129,352 L 1128,351 L 1126,351 L 1125,350 L 1124,350 L 1123,349 L 1121,349 L 1120,348 L 1119,348 L 1118,347 L 1116,347 L 1115,346 L 1113,346 L 1112,345 L 1111,345 L 1110,344 L 1107,344 L 1106,343 L 1104,343 L 1103,342 L 1100,342 L 1099,341 L 1097,341 L 1096,340 L 1093,340 L 1092,339 L 1089,339 L 1088,338 L 1084,338 L 1083,337 L 1080,337 L 1079,336 L 1075,336 L 1074,335 L 1069,335 L 1068,334 L 1063,334 L 1062,333 L 1055,333 L 1054,332 L 1046,332 L 1045,331 Z" fill="orange" /></g></svg>
